<svg id="Layer_1" data-name="Layer 1" xmlns="http://www.w3.org/2000/svg" viewBox="0 0 512 512"><path d="M93.635,137.1c17.225-24.6,19.084-43.291,15.212-46a3.43,3.43,0,0,0-1.972-.491c-2.489,0-6.6,1.473-11.909,5.157-8.026,5.574-16.6,14.579-24.149,25.356-17.225,24.6-19.085,43.291-15.212,46,1.775,1.243,6.755.282,13.88-4.666C77.511,156.877,86.088,147.873,93.635,137.1Z"/><polygon points="284.232 99.865 226.932 78.799 169.63 99.865 226.932 122.169 284.232 99.865"/><path d="M120.234,101.441a53.478,53.478,0,0,1-1.359,6.844c-2.788,10.56-8.842,22.829-17.049,34.547s-17.666,21.6-26.637,27.833a51.749,51.749,0,0,1-6.989,4.141q5.108,3.09,10.292,6.264a97.85,97.85,0,0,1,17.1-15.679c13.259-9.208,21.089-7.607,25.321-4.644l1.938,1.42A1382.272,1382.272,0,0,0,239.939,260.65c3.343-4,7.539-9.293,11.979-15.792l1.648-2.409c8.121-11.872,10.205-14.921,13.621-23q-3.57-2.488-7.112-4.988a101.408,101.408,0,0,1-130.958-96.917q0-3.9.292-7.729Q124.816,105.658,120.234,101.441Z"/><path d="M139.117,117.545A91.331,91.331,0,1,0,139.73,107a4.984,4.984,0,0,1-.292,2.93C139.229,112.439,139.117,114.979,139.117,117.545Zm14.661-22.517,71.429-26.269a5,5,0,0,1,3.45-.019l71.427,26.221a4.9,4.9,0,0,1,3.275,4.568l-.359,14.1,4.838,12.039A29.959,29.959,0,0,1,310,137.054v16.884c0,2.762-1.739,5.062-4.5,5.062H290.9a4.971,4.971,0,0,1-4.9-5.062V137.277a29.8,29.8,0,0,1,2.2-11.862l4.8-11.75v-6.622l-13,5.125v40.763a4.877,4.877,0,0,1-3.116,4.685,142.412,142.412,0,0,1-49.87,9.015,142.718,142.718,0,0,1-49.926-9.015A4.854,4.854,0,0,1,174,152.931V112.168l-20.145-7.777a5.086,5.086,0,0,1-3.269-4.712A4.933,4.933,0,0,1,153.778,95.028Z"/><path d="M227.014,132.535a4.57,4.57,0,0,1-1.73-.341L184,116.06v19.022a131.646,131.646,0,0,0,86,0V116.06l-41.311,16.134A4.3,4.3,0,0,1,227.014,132.535Z"/><path d="M300,137.054a19.856,19.856,0,0,0-1.23-7.613l-.48-1.818-.714,1.725A20,20,0,0,0,296,137.277V149h4Z"/><path d="M428.033,384.627c1.95-2.532,3.814-5.04,5.554-7.485a222.481,222.481,0,0,0,16.667-27.429,13.647,13.647,0,0,0-5.672-18.3c-37.42-20.418-99.674-60.1-140.625-87.129-4.162,9.364-7.643,14.441-17.689,28.681-1.722,2.441-6.647,8.874-10.243,13.572l-.149.2q11.024,7.732,22.176,15.238C328.9,322.719,384.946,359.067,428.033,384.627Z"/><path d="M295.493,238.682c-3.311-2.2-6.456-4.3-9.356-6.253q-5.276-3.549-10.564-7.184c-3.41,7.726-6.094,11.652-13.753,22.849l-1.645,2.406c-4.507,6.6-8.761,12-12.2,16.125q9.808,7.254,19.734,14.326c.124-.161.246-.321.373-.488,3.347-4.371,8.4-10.976,10.013-13.258C288.387,252.618,291.367,248.26,295.493,238.682Z"/><path d="M184,145.61v3.8a131.64,131.64,0,0,0,86,0v-3.8a141.4,141.4,0,0,1-86,0Z"/><path d="M263.369,353.349a24.652,24.652,0,0,0-14.241-4.536,25.139,25.139,0,0,0-4.265.367,24.829,24.829,0,1,0,18.506,4.169Z"/><path d="M164.99,399.138l10.616,6.926a8.219,8.219,0,0,1,3.632,8.069l-1.729,11.657,47.22-27.512a34.462,34.462,0,0,1-9.287-16.211Z"/><path d="M99.97,214.941c17.225-24.595,19.084-43.291,15.212-46a3.434,3.434,0,0,0-1.972-.491c-2.489,0-6.6,1.473-11.908,5.157-8.027,5.575-16.6,14.58-24.15,25.356-17.225,24.6-19.084,43.291-15.212,46S82.745,239.537,99.97,214.941Z"/><path d="M301.829,316.528l-19.922-13.437c-3.408,7.724-6.092,11.65-13.75,22.846l-1.646,2.408c-3.2,4.676-5.934,8.3-8.609,11.6a35.022,35.022,0,0,1,19.837,13.9c2.579-3.317,5.412-6.978,6.693-8.794C294.723,330.463,297.7,326.105,301.829,316.528Z"/><path d="M450.917,409.264c-37.419-20.418-99.673-60.1-140.625-87.13-4.161,9.364-7.643,14.441-17.689,28.681-1.609,2.28-5.215,6.913-8.112,10.636-.713.916-1.379,1.771-1.961,2.522a35.317,35.317,0,0,1,.851,3.674,34.439,34.439,0,0,1-3.254,21.715c56.513,41.089,96.587,72.321,119.124,92.849a13.659,13.659,0,0,0,19.244-.843,286.858,286.858,0,0,0,21.427-26.381,222.529,222.529,0,0,0,16.667-27.429A13.645,13.645,0,0,0,450.917,409.264Z"/><path d="M249.139,408.3a34.688,34.688,0,0,1-11.878-2.116l-10.178,54.526,10.463-5.494a8.222,8.222,0,0,1,8.814.764l10.018,7.717-.945-55.972A35.113,35.113,0,0,1,249.139,408.3Z"/><path d="M243.163,339.326c.827-.143,1.655-.245,2.483-.328A169.365,169.365,0,0,0,258.254,322.7l1.649-2.412c8.124-11.877,10.2-14.923,13.624-23.009a1392.787,1392.787,0,0,1-146.958-118,53.3,53.3,0,0,1-1.358,6.845c-2.788,10.56-8.843,22.829-17.049,34.547S90.5,242.28,81.525,248.51a51.681,51.681,0,0,1-7,4.144c45.8,27.7,97.065,61.023,149.3,97.039A34.44,34.44,0,0,1,243.163,339.326Zm-105.6-73.179a5,5,0,0,1-6.892,1.58q-4.706-2.95-9.378-5.854a5,5,0,0,1,5.277-8.494q4.691,2.913,9.413,5.876A5,5,0,0,1,137.566,266.147ZM219.251,319.5a5,5,0,0,1-6.939,1.357c-21.775-14.648-43.3-28.767-63.991-41.964a5,5,0,1,1,5.378-8.431c20.755,13.241,42.353,27.4,64.195,42.1A5,5,0,0,1,219.251,319.5Z"/></svg>