<?xml version="1.0" encoding="utf-8"?>
<!-- Generator: Adobe Illustrator 21.1.0, SVG Export Plug-In . SVG Version: 6.00 Build 0)  -->
<svg version="1.1" id="Glyph" xmlns="http://www.w3.org/2000/svg" xmlns:xlink="http://www.w3.org/1999/xlink" x="0px" y="0px"
	 viewBox="0 0 32 32" style="enable-background:new 0 0 32 32;" xml:space="preserve">
<path d="M23,16.915V22c0,0-3,2-7,2s-7-2-7-2v-5.085l6.82,2.623c0.116,0.044,0.243,0.044,0.359,0L23,16.915z"/>
<path d="M28.266,13.282L27,13.769v4.323c0.581,0.207,1,0.756,1,1.408v2.2c0,0.166-0.134,0.3-0.3,0.3h-2.4
	c-0.166,0-0.3-0.134-0.3-0.3v-2.2c0-0.652,0.419-1.202,1-1.408v-3.938l-9.891,3.804c-0.075,0-0.142,0-0.217,0L3.734,13.282
	c-0.258-0.099-0.258-0.465,0-0.565l12.158-4.676c0.075,0,0.142,0,0.217,0l12.158,4.676C28.525,12.817,28.525,13.183,28.266,13.282z"
	/>
</svg>
