<?xml version="1.0" encoding="iso-8859-1"?>
<!-- Generator: Adobe Illustrator 25.3.1, SVG Export Plug-In . SVG Version: 6.00 Build 0)  -->
<svg version="1.1" xmlns="http://www.w3.org/2000/svg" xmlns:xlink="http://www.w3.org/1999/xlink" x="0px" y="0px"
	 viewBox="0 0 64 64" style="enable-background:new 0 0 64 64;" xml:space="preserve">
<g id="text" style="display:none;">
</g>
<g id="guide" style="display:none;">
</g>
<g id="stroke" style="display:none;">
	
		<path style="display:inline;fill:#BCBEC0;stroke:#000000;stroke-width:2;stroke-linecap:round;stroke-linejoin:round;stroke-miterlimit:10;" d="
		M19.605,23.96l5.822-5.822L15.046,7.755c-0.999-0.999-2.617-0.999-3.616,0L9.223,9.962c-0.999,0.999-0.999,2.617,0,3.616
		L19.605,23.96z"/>
	
		<path style="display:inline;fill:#BCBEC0;stroke:#000000;stroke-width:2;stroke-linecap:round;stroke-linejoin:round;stroke-miterlimit:10;" d="
		M44.395,23.96l-5.822-5.822L48.954,7.755c0.999-0.999,2.617-0.999,3.616,0l2.206,2.206c0.999,0.999,0.999,2.617,0,3.616
		L44.395,23.96z"/>
	
		<line style="display:inline;fill:none;stroke:#000000;stroke-width:2;stroke-linecap:round;stroke-linejoin:round;stroke-miterlimit:10;" x1="49.791" y1="12.741" x2="53.16" y2="9.372"/>
	
		<line style="display:inline;fill:none;stroke:#000000;stroke-width:2;stroke-linecap:round;stroke-linejoin:round;stroke-miterlimit:10;" x1="20.745" y1="19.277" x2="10.84" y2="9.372"/>
	
		<path style="display:inline;fill:#BCBEC0;stroke:#000000;stroke-width:2;stroke-linecap:round;stroke-linejoin:round;stroke-miterlimit:10;" d="
		M18.741,56.134H8.71c-1.281,0-2.32-1.039-2.32-2.32v-2.749c0-1.281,1.039-2.32,2.32-2.32h10.031V56.134z"/>
	
		<path style="display:inline;fill:#BCBEC0;stroke:#000000;stroke-width:2;stroke-linecap:round;stroke-linejoin:round;stroke-miterlimit:10;" d="
		M45.259,56.134H55.29c1.281,0,2.32-1.039,2.32-2.32v-2.749c0-1.281-1.039-2.32-2.32-2.32H45.259V56.134z"/>
	
		<path style="display:inline;fill:none;stroke:#000000;stroke-width:2;stroke-linecap:round;stroke-linejoin:round;stroke-miterlimit:10;" d="
		M26.116,16.673h11.769V7.717c0-1.599-1.296-2.894-2.894-2.894h-5.98c-1.599,0-2.894,1.296-2.894,2.894V16.673z"/>
	
		<path style="display:inline;fill:#BCBEC0;stroke:#000000;stroke-width:2;stroke-linecap:round;stroke-linejoin:round;stroke-miterlimit:10;" d="
		M15.561,59.178h32.877c2.544,0,4.606-2.062,4.606-4.606V30.197c0-11.622-9.422-21.044-21.044-21.044h0
		c-11.622,0-21.044,9.422-21.044,21.044v24.375C10.956,57.116,13.018,59.178,15.561,59.178z"/>
	
		<path style="display:inline;fill:none;stroke:#000000;stroke-width:2;stroke-linecap:round;stroke-linejoin:round;stroke-miterlimit:10;" d="
		M14.956,30.197c0-9.398,7.646-17.044,17.044-17.044s17.044,7.646,17.044,17.044"/>
	
		<path style="display:inline;fill:#BCBEC0;stroke:#000000;stroke-width:2;stroke-linecap:round;stroke-linejoin:round;stroke-miterlimit:10;" d="
		M21.043,52.439h21.914c1.87,0,3.386-1.516,3.386-3.386v-10.35c0-1.87-1.516-3.386-3.386-3.386H21.043
		c-1.87,0-3.386,1.516-3.386,3.386v10.35C17.657,50.923,19.173,52.439,21.043,52.439z"/>
	
		<line style="display:inline;fill:none;stroke:#000000;stroke-width:2;stroke-linecap:round;stroke-linejoin:round;stroke-miterlimit:10;" x1="22.657" y1="42.071" x2="46.343" y2="42.071"/>
	
		<line style="display:inline;fill:none;stroke:#000000;stroke-width:2;stroke-linecap:round;stroke-linejoin:round;stroke-miterlimit:10;" x1="42.516" y1="42.071" x2="42.516" y2="45.08"/>
	
		<path style="display:inline;fill:#BCBEC0;stroke:#000000;stroke-width:2;stroke-linecap:round;stroke-linejoin:round;stroke-miterlimit:10;" d="
		M37.832,26.833H26.168c-1.17,0-2.118-0.948-2.118-2.118v-1.919c0-1.17,0.948-2.118,2.118-2.118h11.664
		c1.17,0,2.118,0.948,2.118,2.118v1.919C39.95,25.885,39.002,26.833,37.832,26.833z"/>
</g>
<g id="flat" style="display:none;">
	<path style="display:inline;fill:#00A9C5;" d="M9.223,13.578c-0.999-0.999-0.999-2.617,0-3.616l2.206-2.206
		c0.999-0.999,2.617-0.999,3.616,0l10.382,10.382l-5.822,5.822L9.223,13.578z M54.777,13.578c0.999-0.999,0.999-2.617,0-3.616
		L52.57,7.755c-0.999-0.999-2.617-0.999-3.616,0L38.572,18.137l5.822,5.822L54.777,13.578z M18.741,48.744H8.71
		c-1.281,0-2.32,1.039-2.32,2.32v2.749c0,1.281,1.039,2.32,2.32,2.32h10.031V48.744z M45.259,56.134H55.29
		c1.281,0,2.32-1.039,2.32-2.32v-2.749c0-1.281-1.039-2.32-2.32-2.32H45.259V56.134z M38.884,16.673V7.717
		c0-2.147-1.747-3.895-3.895-3.895H29.01c-2.147,0-3.895,1.747-3.895,3.895v8.957c0,0.552,0.448,1,1,1h11.769
		C38.437,17.673,38.884,17.226,38.884,16.673z M27.116,7.717c0-1.044,0.85-1.895,1.895-1.895h5.979c1.044,0,1.895,0.85,1.895,1.895
		v7.957h-9.769V7.717z"/>
	<path style="display:inline;fill:#66D7DE;" d="M15.561,59.178h32.877c2.544,0,4.606-2.062,4.606-4.606V30.197
		c0-11.622-9.422-21.044-21.044-21.044h0c-11.622,0-21.044,9.422-21.044,21.044v24.375C10.956,57.116,13.018,59.178,15.561,59.178z"
		/>
	<path style="display:inline;fill:#00A9C5;" d="M49.044,31.197c-0.552,0-1-0.448-1-1c0-8.847-7.197-16.044-16.044-16.044
		S15.956,21.35,15.956,30.197c0,0.552-0.448,1-1,1s-1-0.448-1-1c0-9.949,8.094-18.044,18.044-18.044s18.044,8.095,18.044,18.044
		C50.044,30.749,49.596,31.197,49.044,31.197z M21.043,52.439h21.914c1.87,0,3.386-1.516,3.386-3.386v-10.35
		c0-1.87-1.516-3.386-3.386-3.386H21.043c-1.87,0-3.386,1.516-3.386,3.386v10.35C17.657,50.923,19.173,52.439,21.043,52.439z
		 M39.95,24.715v-1.919c0-1.17-0.948-2.118-2.118-2.118H26.168c-1.17,0-2.118,0.948-2.118,2.118v1.919
		c0,1.17,0.948,2.118,2.118,2.118h11.664C39.002,26.833,39.95,25.885,39.95,24.715z"/>
	<path style="display:inline;fill:#008CA7;" d="M54.381,9.566l-3.883,3.882c-0.195,0.195-0.451,0.293-0.707,0.293
		s-0.512-0.098-0.707-0.293c-0.391-0.391-0.391-1.024,0-1.414l3.883-3.882L54.381,9.566z M17.685,14.803l-6.651-6.651L9.619,9.566
		l6.667,6.667C16.73,15.734,17.196,15.258,17.685,14.803z M46.343,41.071H22.657c-0.552,0-1,0.448-1,1s0.448,1,1,1h18.859v2.009
		c0,0.552,0.448,1,1,1s1-0.448,1-1v-2.009h2.828V41.071z"/>
</g>
<g id="outlinestroke" style="display:none;">
	<path style="display:inline;fill:none;stroke:#000000;stroke-width:2;stroke-linejoin:round;stroke-miterlimit:10;" d="
		M14.37,18.72l-5.15-5.14c-1-1-1-2.62,0-3.62l2.21-2.2c1-1,2.62-1,3.62,0l5.07,5.07"/>
	<path style="display:inline;fill:none;stroke:#000000;stroke-width:2;stroke-linejoin:round;stroke-miterlimit:10;" d="
		M43.88,12.83l5.07-5.07c1-1,2.62-1,3.62,0l2.21,2.2c1,1,1,2.62,0,3.62l-5.15,5.14"/>
	
		<line style="display:inline;fill:none;stroke:#000000;stroke-width:2;stroke-linecap:round;stroke-linejoin:round;stroke-miterlimit:10;" x1="49.791" y1="12.741" x2="53.16" y2="9.372"/>
	
		<line style="display:inline;fill:none;stroke:#000000;stroke-width:2;stroke-linecap:round;stroke-linejoin:round;stroke-miterlimit:10;" x1="16.95" y1="15.48" x2="10.84" y2="9.37"/>
	<path style="display:inline;fill:none;stroke:#000000;stroke-width:2;stroke-linejoin:round;stroke-miterlimit:10;" d="
		M10.96,48.74H8.71c-1.28,0-2.32,1.04-2.32,2.32v2.75c0,1.29,1.04,2.32,2.32,2.32h2.53"/>
	<path style="display:inline;fill:none;stroke:#000000;stroke-width:2;stroke-linejoin:round;stroke-miterlimit:10;" d="
		M53.04,48.74h2.25c1.28,0,2.32,1.04,2.32,2.32v2.75c0,1.29-1.04,2.32-2.32,2.32h-2.53"/>
	<path style="display:inline;fill:none;stroke:#000000;stroke-width:2;stroke-linejoin:round;stroke-miterlimit:10;" d="M26.12,9.98
		V7.72c0-1.6,1.29-2.9,2.89-2.9h5.98c1.6,0,2.89,1.3,2.89,2.9v2.26"/>
	
		<path style="display:inline;fill:none;stroke:#000000;stroke-width:2;stroke-linecap:round;stroke-linejoin:round;stroke-miterlimit:10;" d="
		M15.561,59.178h32.877c2.544,0,4.606-2.062,4.606-4.606V30.197c0-11.622-9.422-21.044-21.044-21.044h0
		c-11.622,0-21.044,9.422-21.044,21.044v24.375C10.956,57.116,13.018,59.178,15.561,59.178z"/>
	
		<path style="display:inline;fill:none;stroke:#000000;stroke-width:2;stroke-linecap:round;stroke-linejoin:round;stroke-miterlimit:10;" d="
		M14.956,30.197c0-9.398,7.646-17.044,17.044-17.044s17.044,7.646,17.044,17.044"/>
	
		<path style="display:inline;fill:none;stroke:#000000;stroke-width:2;stroke-linecap:round;stroke-linejoin:round;stroke-miterlimit:10;" d="
		M21.043,52.439h21.914c1.87,0,3.386-1.516,3.386-3.386v-10.35c0-1.87-1.516-3.386-3.386-3.386H21.043
		c-1.87,0-3.386,1.516-3.386,3.386v10.35C17.657,50.923,19.173,52.439,21.043,52.439z"/>
	
		<line style="display:inline;fill:none;stroke:#000000;stroke-width:2;stroke-linecap:round;stroke-linejoin:round;stroke-miterlimit:10;" x1="22.657" y1="42.071" x2="46.343" y2="42.071"/>
	
		<line style="display:inline;fill:none;stroke:#000000;stroke-width:2;stroke-linecap:round;stroke-linejoin:round;stroke-miterlimit:10;" x1="42.516" y1="42.071" x2="42.516" y2="45.08"/>
	
		<path style="display:inline;fill:none;stroke:#000000;stroke-width:2;stroke-linecap:round;stroke-linejoin:round;stroke-miterlimit:10;" d="
		M37.832,26.833H26.168c-1.17,0-2.118-0.948-2.118-2.118v-1.919c0-1.17,0.948-2.118,2.118-2.118h11.664
		c1.17,0,2.118,0.948,2.118,2.118v1.919C39.95,25.885,39.002,26.833,37.832,26.833z"/>
</g>
<g id="flat2" style="display:none;">
	<path style="display:inline;fill:#00A9C5;" d="M9.223,13.578c-0.999-0.999-0.999-2.617,0-3.616l2.206-2.206
		c0.999-0.999,2.617-0.999,3.616,0l10.382,10.382l-5.822,5.822L9.223,13.578z M54.777,13.578c0.999-0.999,0.999-2.617,0-3.616
		L52.57,7.755c-0.999-0.999-2.617-0.999-3.616,0L38.572,18.137l5.822,5.822L54.777,13.578z M18.741,48.744H8.71
		c-1.281,0-2.32,1.039-2.32,2.32v2.749c0,1.281,1.039,2.32,2.32,2.32h10.031V48.744z M45.259,56.134H55.29
		c1.281,0,2.32-1.039,2.32-2.32v-2.749c0-1.281-1.039-2.32-2.32-2.32H45.259V56.134z M38.884,16.673V7.717
		c0-2.147-1.747-3.895-3.895-3.895H29.01c-2.147,0-3.895,1.747-3.895,3.895v8.957c0,0.552,0.448,1,1,1h11.769
		C38.437,17.673,38.884,17.226,38.884,16.673z M27.116,7.717c0-1.044,0.85-1.895,1.895-1.895h5.979c1.044,0,1.895,0.85,1.895,1.895
		v7.957h-9.769V7.717z"/>
	<path style="display:inline;fill:#66D7DE;" d="M15.561,59.178h32.877c2.544,0,4.606-2.062,4.606-4.606V30.197
		c0-11.622-9.422-21.044-21.044-21.044h0c-11.622,0-21.044,9.422-21.044,21.044v24.375C10.956,57.116,13.018,59.178,15.561,59.178z"
		/>
	<path style="display:inline;fill:#00A9C5;" d="M17.657,49.053v-10.35c0-1.87,1.516-3.386,3.386-3.386h21.914
		c1.87,0,3.386,1.516,3.386,3.386v10.35c0,1.87-1.516,3.386-3.386,3.386H21.043C19.173,52.439,17.657,50.923,17.657,49.053z
		 M39.95,24.715v-1.919c0-1.17-0.948-2.118-2.118-2.118H26.168c-1.17,0-2.118,0.948-2.118,2.118v1.919
		c0,1.17,0.948,2.118,2.118,2.118h11.664C39.002,26.833,39.95,25.885,39.95,24.715z"/>
</g>
<g id="outline">
	<path d="M55.29,47.74h-1.246V30.197c0-4.141-1.15-8.018-3.144-11.331l4.587-4.578c1.388-1.388,1.388-3.646-0.001-5.036
		l-2.208-2.199c-1.388-1.388-3.646-1.387-5.034,0l-4.501,4.501c-1.508-0.953-3.138-1.728-4.862-2.296V7.72
		c0-2.151-1.745-3.9-3.89-3.9h-5.98c-2.145,0-3.89,1.75-3.89,3.9v1.538c-1.724,0.568-3.354,1.343-4.862,2.296l-4.501-4.501
		c-1.387-1.387-3.645-1.388-5.032-0.001L8.513,9.253c-1.388,1.388-1.388,3.646,0,5.035l4.586,4.577
		c-1.994,3.314-3.144,7.19-3.144,11.331V47.74H8.71c-1.831,0-3.32,1.489-3.32,3.32v2.75c0,1.831,1.489,3.32,3.32,3.32h1.87
		c0.932,1.807,2.813,3.048,4.982,3.048h32.877c2.169,0,4.05-1.241,4.982-3.048h1.87c1.831,0,3.32-1.489,3.32-3.32v-2.75
		C58.61,49.229,57.121,47.74,55.29,47.74z M8.71,55.13c-0.728,0-1.32-0.592-1.32-1.32v-2.75c0-0.728,0.592-1.32,1.32-1.32h1.246
		v4.832c0,0.188,0.01,0.374,0.028,0.558H8.71z M49.657,8.467c0.608-0.608,1.597-0.607,2.207,0.001l0.394,0.392l-3.174,3.173
		c-0.391,0.39-0.391,1.023,0,1.414c0.195,0.195,0.451,0.293,0.707,0.293s0.512-0.098,0.707-0.293l3.177-3.177l0.398,0.396
		c0.608,0.608,0.608,1.598,0,2.205l-4.305,4.297c-1.237-1.682-2.706-3.181-4.36-4.453L49.657,8.467z M27.12,7.72
		c0-1.048,0.848-1.9,1.89-1.9h5.98c1.042,0,1.89,0.853,1.89,1.9v0.984C35.309,8.347,33.677,8.153,32,8.153s-3.309,0.195-4.88,0.551
		V7.72z M14.343,8.467l4.249,4.249c-0.562,0.432-1.102,0.89-1.619,1.373l-5.23-5.23l0.394-0.392
		C12.745,7.859,13.734,7.858,14.343,8.467z M9.927,12.873c-0.608-0.608-0.608-1.598-0.001-2.205l0.4-0.398l5.247,5.247
		c-0.473,0.529-0.92,1.08-1.341,1.652L9.927,12.873z M52.044,54.572c0,1.988-1.617,3.606-3.605,3.606H15.562
		c-1.988,0-3.605-1.618-3.605-3.606V30.197c0-11.052,8.992-20.044,20.044-20.044s20.044,8.992,20.044,20.044V54.572z M56.61,53.81
		c0,0.728-0.592,1.32-1.32,1.32h-1.274c0.018-0.184,0.028-0.37,0.028-0.558V49.74h1.246c0.728,0,1.32,0.592,1.32,1.32V53.81z
		 M50.044,30.197c0,0.552-0.448,1-1,1s-1-0.448-1-1c0-8.847-7.197-16.044-16.044-16.044S15.956,21.35,15.956,30.197
		c0,0.552-0.448,1-1,1s-1-0.448-1-1c0-9.949,8.094-18.044,18.044-18.044S50.044,20.248,50.044,30.197z M42.957,34.317H21.043
		c-2.418,0-4.386,1.968-4.386,4.386v10.35c0,2.418,1.968,4.386,4.386,4.386h21.914c2.418,0,4.386-1.968,4.386-4.386v-10.35
		C47.343,36.285,45.375,34.317,42.957,34.317z M42.957,51.439H21.043c-1.316,0-2.386-1.07-2.386-2.386v-10.35
		c0-1.316,1.07-2.386,2.386-2.386h21.914c1.316,0,2.386,1.07,2.386,2.386v2.368H22.657c-0.552,0-1,0.448-1,1s0.448,1,1,1h18.859
		v2.009c0,0.552,0.448,1,1,1s1-0.448,1-1v-2.009h1.828v5.982C45.343,50.369,44.273,51.439,42.957,51.439z M37.832,27.833
		c1.719,0,3.118-1.399,3.118-3.119v-1.918c0-1.72-1.399-3.119-3.118-3.119H26.168c-1.719,0-3.118,1.399-3.118,3.119v1.918
		c0,1.72,1.399,3.119,3.118,3.119H37.832z M25.05,24.715v-1.918c0-0.617,0.501-1.119,1.118-1.119h11.664
		c0.617,0,1.118,0.502,1.118,1.119v1.918c0,0.617-0.501,1.119-1.118,1.119H26.168C25.551,25.833,25.05,25.332,25.05,24.715z"/>
</g>
<g id="filled_outline" style="display:none;">
	<path style="display:inline;fill:#00A9C5;" d="M9.223,13.578c-0.999-0.999-0.999-2.617,0-3.616l2.206-2.206
		c0.999-0.999,2.617-0.999,3.616,0l10.382,10.382l-5.822,5.822L9.223,13.578z M54.777,13.578c0.999-0.999,0.999-2.617,0-3.616
		L52.57,7.755c-0.999-0.999-2.617-0.999-3.616,0L38.572,18.137l5.822,5.822L54.777,13.578z M18.741,48.744H8.71
		c-1.281,0-2.32,1.039-2.32,2.32v2.749c0,1.281,1.039,2.32,2.32,2.32h10.031V48.744z M45.259,56.134H55.29
		c1.281,0,2.32-1.039,2.32-2.32v-2.749c0-1.281-1.039-2.32-2.32-2.32H45.259V56.134z M38.884,16.673V7.717
		c0-2.147-1.747-3.895-3.895-3.895H29.01c-2.147,0-3.895,1.747-3.895,3.895v8.957c0,0.552,0.448,1,1,1h11.769
		C38.437,17.673,38.884,17.226,38.884,16.673z M27.116,7.717c0-1.044,0.85-1.895,1.895-1.895h5.979c1.044,0,1.895,0.85,1.895,1.895
		v7.957h-9.769V7.717z"/>
	<path style="display:inline;fill:#66D7DE;" d="M15.561,59.178h32.877c2.544,0,4.606-2.062,4.606-4.606V30.197
		c0-11.622-9.422-21.044-21.044-21.044h0c-11.622,0-21.044,9.422-21.044,21.044v24.375C10.956,57.116,13.018,59.178,15.561,59.178z"
		/>
	<path style="display:inline;fill:#00A9C5;" d="M17.657,49.053v-10.35c0-1.87,1.516-3.386,3.386-3.386h21.914
		c1.87,0,3.386,1.516,3.386,3.386v10.35c0,1.87-1.516,3.386-3.386,3.386H21.043C19.173,52.439,17.657,50.923,17.657,49.053z
		 M39.95,24.715v-1.919c0-1.17-0.948-2.118-2.118-2.118H26.168c-1.17,0-2.118,0.948-2.118,2.118v1.919
		c0,1.17,0.948,2.118,2.118,2.118h11.664C39.002,26.833,39.95,25.885,39.95,24.715z"/>
	<path style="display:inline;" d="M55.29,47.74h-1.246V30.197c0-4.141-1.15-8.018-3.144-11.331l4.587-4.578
		c1.388-1.388,1.388-3.646-0.001-5.036l-2.208-2.199c-1.388-1.388-3.646-1.387-5.034,0l-4.501,4.501
		c-1.508-0.953-3.138-1.728-4.862-2.296V7.72c0-2.151-1.745-3.9-3.89-3.9h-5.98c-2.145,0-3.89,1.75-3.89,3.9v1.538
		c-1.724,0.568-3.354,1.343-4.862,2.296l-4.501-4.501c-1.387-1.387-3.645-1.388-5.032-0.001L8.513,9.253
		c-1.388,1.388-1.388,3.646,0,5.035l4.586,4.577c-1.994,3.314-3.144,7.19-3.144,11.331V47.74H8.71c-1.831,0-3.32,1.489-3.32,3.32
		v2.75c0,1.831,1.489,3.32,3.32,3.32h1.87c0.932,1.807,2.813,3.048,4.982,3.048h32.877c2.169,0,4.05-1.241,4.982-3.048h1.87
		c1.831,0,3.32-1.489,3.32-3.32v-2.75C58.61,49.229,57.121,47.74,55.29,47.74z M8.71,55.13c-0.728,0-1.32-0.592-1.32-1.32v-2.75
		c0-0.728,0.592-1.32,1.32-1.32h1.246v4.832c0,0.188,0.01,0.374,0.028,0.558H8.71z M49.657,8.467
		c0.608-0.608,1.597-0.607,2.207,0.001l0.394,0.392l-3.174,3.173c-0.391,0.39-0.391,1.023,0,1.414
		c0.195,0.195,0.451,0.293,0.707,0.293s0.512-0.098,0.707-0.293l3.177-3.177l0.398,0.396c0.608,0.608,0.608,1.598,0,2.205
		l-4.305,4.297c-1.237-1.682-2.706-3.181-4.36-4.453L49.657,8.467z M27.12,7.72c0-1.048,0.848-1.9,1.89-1.9h5.98
		c1.042,0,1.89,0.853,1.89,1.9v0.984C35.309,8.347,33.677,8.153,32,8.153s-3.309,0.195-4.88,0.551V7.72z M14.343,8.467l4.249,4.249
		c-0.562,0.432-1.102,0.89-1.619,1.373l-5.23-5.23l0.394-0.392C12.745,7.859,13.734,7.858,14.343,8.467z M9.927,12.873
		c-0.608-0.608-0.608-1.598-0.001-2.205l0.4-0.398l5.247,5.247c-0.473,0.529-0.92,1.08-1.341,1.652L9.927,12.873z M52.044,54.572
		c0,1.988-1.617,3.606-3.605,3.606H15.562c-1.988,0-3.605-1.618-3.605-3.606V30.197c0-11.052,8.992-20.044,20.044-20.044
		s20.044,8.992,20.044,20.044V54.572z M56.61,53.81c0,0.728-0.592,1.32-1.32,1.32h-1.274c0.018-0.184,0.028-0.37,0.028-0.558V49.74
		h1.246c0.728,0,1.32,0.592,1.32,1.32V53.81z M50.044,30.197c0,0.552-0.448,1-1,1s-1-0.448-1-1c0-8.847-7.197-16.044-16.044-16.044
		S15.956,21.35,15.956,30.197c0,0.552-0.448,1-1,1s-1-0.448-1-1c0-9.949,8.094-18.044,18.044-18.044S50.044,20.248,50.044,30.197z
		 M42.957,34.317H21.043c-2.418,0-4.386,1.968-4.386,4.386v10.35c0,2.418,1.968,4.386,4.386,4.386h21.914
		c2.418,0,4.386-1.968,4.386-4.386v-10.35C47.343,36.285,45.375,34.317,42.957,34.317z M42.957,51.439H21.043
		c-1.316,0-2.386-1.07-2.386-2.386v-10.35c0-1.316,1.07-2.386,2.386-2.386h21.914c1.316,0,2.386,1.07,2.386,2.386v2.368H22.657
		c-0.552,0-1,0.448-1,1s0.448,1,1,1h18.859v2.009c0,0.552,0.448,1,1,1s1-0.448,1-1v-2.009h1.828v5.982
		C45.343,50.369,44.273,51.439,42.957,51.439z M37.832,27.833c1.719,0,3.118-1.399,3.118-3.119v-1.918
		c0-1.72-1.399-3.119-3.118-3.119H26.168c-1.719,0-3.118,1.399-3.118,3.119v1.918c0,1.72,1.399,3.119,3.118,3.119H37.832z
		 M25.05,24.715v-1.918c0-0.617,0.501-1.119,1.118-1.119h11.664c0.617,0,1.118,0.502,1.118,1.119v1.918
		c0,0.617-0.501,1.119-1.118,1.119H26.168C25.551,25.833,25.05,25.332,25.05,24.715z"/>
</g>
</svg>
