<?xml version="1.0" encoding="UTF-8" standalone="no"?>
<!-- Created with Inkscape (http://www.inkscape.org/) -->

<svg
   version="1.1"
   id="svg2"
   xml:space="preserve"
   width="254.55565"
   height="190.91656"
   viewBox="0 0 254.55565 190.91656"
   sodipodi:docname="timeline.svg"
   inkscape:version="1.1.2 (0a00cf5339, 2022-02-04)"
   xmlns:inkscape="http://www.inkscape.org/namespaces/inkscape"
   xmlns:sodipodi="http://sodipodi.sourceforge.net/DTD/sodipodi-0.dtd"
   xmlns="http://www.w3.org/2000/svg"
   xmlns:svg="http://www.w3.org/2000/svg"><defs
     id="defs6"><clipPath
       clipPathUnits="userSpaceOnUse"
       id="clipPath1808"><path
         d="m 892.352,334.684 c -25.114,25.109 -26.102,65.16 -2.883,91.347 l -8.547,4.949 -56.793,32.762 -22.949,13.321 c 12.691,21.96 19.441,45.718 20.879,69.3 4.41,-6.75 7.832,-14.402 9.992,-22.59 11.34,-42.21 54.629,-67.23 96.84,-55.98 42.211,11.34 85.589,-13.77 96.839,-55.98 5.67,-21.059 2.25,-42.481 -7.92,-59.942 l -10.8,6.211 c -2.88,-5.039 -6.48,-9.809 -10.799,-14.129 l -0.09,-0.09 -0.09,-0.09 -0.09,-0.089 -0.089,-0.09 -0.09,-0.09 -0.09,-0.094 c -0.094,-0.09 -0.184,-0.18 -0.274,-0.18 0,-0.089 -0.089,-0.179 -0.179,-0.269 l -0.09,-0.09 -0.09,-0.09 -0.09,-0.09 -0.09,-0.089 -0.089,-0.09 -0.09,-0.09 c 0,0 -0.09,-0.09 -0.18,-0.09 0,-0.09 -0.09,-0.18 -0.09,-0.18 l -0.09,-0.089 -0.09,-0.09 -0.089,-0.09 -0.09,-0.09 -0.09,-0.09 -0.09,-0.09 c 0,0 -0.09,-0.09 -0.18,-0.09 0,-0.089 -0.089,-0.179 -0.089,-0.179 l -0.09,-0.09 -0.09,-0.094 -0.094,-0.09 -0.09,-0.09 -0.09,-0.089 -0.089,-0.09 c 0,0 -0.09,-0.09 -0.18,-0.09 0,-0.09 -0.09,-0.18 -0.09,-0.18 l -0.09,-0.09 -0.09,-0.089 -0.089,-0.09 -0.09,-0.09 -0.09,-0.09 -0.09,-0.09 c 0,0 -0.09,-0.09 -0.18,-0.09 0,-0.089 -0.09,-0.179 -0.09,-0.179 l -0.089,-0.09 -0.09,-0.09 -0.09,-0.09 -0.09,-0.09 -0.09,-0.09 -0.09,-0.089 c 0,0 -0.089,-0.09 -0.179,-0.09 0,-0.09 -0.09,-0.184 -0.09,-0.184 l -0.094,-0.09 -0.09,-0.09 -0.09,-0.089 -0.089,-0.09 -0.09,-0.09 -0.09,-0.09 c 0,0 -0.09,-0.09 -0.18,-0.09 0,-0.09 -0.09,-0.179 -0.09,-0.179 l -0.089,-0.09 -0.09,-0.09 -0.09,-0.09 -0.09,-0.09 -0.09,-0.09 -0.09,-0.089 c -0.09,-0.09 -0.179,-0.18 -0.269,-0.18 0,-0.09 -0.09,-0.18 -0.18,-0.27 l -0.09,-0.09 -0.09,-0.089 -0.089,-0.09 -0.09,-0.09 -0.09,-0.094 -0.094,-0.09 c 0,0 -0.09,-0.09 -0.18,-0.09 0,-0.089 -0.089,-0.179 -0.089,-0.179 l -0.09,-0.09 -0.09,-0.09 -0.09,-0.09 -0.09,-0.09 -0.09,-0.089 -0.089,-0.09 c 0,0 -0.09,-0.09 -0.18,-0.09 0,-0.09 -0.09,-0.18 -0.09,-0.18 l -0.09,-0.09 -0.09,-0.089 -0.09,-0.09 -0.089,-0.09 -0.09,-0.09 -0.09,-0.09 c 0,0 -0.09,-0.09 -0.18,-0.09 0,-0.09 -0.09,-0.179 -0.09,-0.179 -13.05,-13.051 -30.152,-19.532 -47.339,-19.532 -17.102,0 -34.204,6.481 -47.25,19.532 m 50.757,207.988 c -21.238,21.238 -25.199,53.191 -11.879,78.391 3.059,5.847 7.02,11.339 11.969,16.289 0.18,0.179 0.27,0.269 0.449,0.359 0.09,0.18 0.18,0.269 0.364,0.449 l 0.09,0.094 0.089,0.09 c 0.09,0.09 0.18,0.179 0.36,0.269 0.09,0.18 0.179,0.27 0.269,0.36 l 0.09,0.09 0.09,0.089 c 0.18,0.18 0.27,0.27 0.449,0.36 0.09,0.179 0.18,0.269 0.36,0.449 0.179,0.18 0.269,0.269 0.453,0.359 0.09,0.184 0.179,0.274 0.359,0.453 0.18,0.18 0.27,0.27 0.449,0.36 0.09,0.18 0.18,0.269 0.36,0.449 0.179,0.18 0.269,0.27 0.449,0.359 0.09,0.18 0.18,0.27 0.359,0.45 1.621,1.621 3.332,3.152 5.133,4.589 26.188,21.872 65.249,20.524 89.909,-4.136 23.76,-23.762 25.92,-60.934 6.39,-87.031 -1.98,-2.79 -4.23,-5.403 -6.66,-7.833 l -0.09,-0.089 -0.09,-0.09 c -0.18,-0.18 -0.27,-0.27 -0.45,-0.36 -0.09,-0.179 -0.18,-0.269 -0.36,-0.449 -0.18,-0.179 -0.27,-0.269 -0.45,-0.359 -0.09,-0.18 -0.18,-0.27 -0.36,-0.449 l -0.09,-0.09 -0.09,-0.09 c -0.09,-0.094 -0.18,-0.184 -0.36,-0.274 -0.09,-0.179 -0.18,-0.269 -0.27,-0.359 l -0.09,-0.09 -0.09,-0.09 c -0.09,-0.089 -0.18,-0.179 -0.36,-0.269 -0.09,-0.18 -0.18,-0.27 -0.27,-0.359 l -0.09,-0.09 -0.09,-0.09 c -0.09,-0.09 -0.18,-0.18 -0.36,-0.27 -0.09,-0.179 -0.18,-0.269 -0.27,-0.359 l -0.09,-0.094 -0.09,-0.09 c -0.09,-0.09 -0.18,-0.179 -0.36,-0.269 -0.09,-0.18 -0.18,-0.27 -0.27,-0.36 l -0.09,-0.089 -0.09,-0.09 c -4.95,-4.949 -10.44,-8.91 -16.29,-11.969 -9.72,-5.133 -20.43,-7.652 -31.141,-7.652 -17.097,0 -34.199,6.48 -47.25,19.531 M 801.27,736.441 c -12.692,21.961 -42.391,47.7 -42.391,47.7 0.09,0 0.18,0 0.359,0 3.242,0.453 0,5.222 3.692,4.863 4.41,-0.453 8.91,-1.262 13.32,-2.434 42.121,-11.34 85.5,13.774 96.84,55.891 11.34,42.211 54.719,67.23 96.93,55.891 21.058,-5.579 37.89,-19.258 47.97,-36.809 10.17,-17.551 13.59,-38.973 7.92,-60.031 -8.82,-32.942 -37.262,-55.442 -69.39,-58.321 -18.45,-6.839 -39.239,-5.308 -56.61,4.68 -31.41,-3.508 -59.039,-25.738 -67.769,-58.141 -2.25,-8.277 -5.672,-15.839 -10.082,-22.589 -1.348,23.582 -8.098,47.339 -20.789,69.3"
         clip-rule="evenodd"
         id="path1806" /></clipPath><clipPath
       clipPathUnits="userSpaceOnUse"
       id="clipPath1820"><path
         d="m 459.988,48.5703 c -4.136,0.3633 -8.367,1.1719 -12.508,2.25 -21.058,5.6719 -37.89,19.3516 -47.968,36.9024 -7.024,11.9687 -10.801,25.9183 -10.621,40.2303 0,6.481 0.898,13.141 2.699,19.707 11.25,42.211 54.629,67.32 96.84,55.981 6.84,-1.797 13.679,-2.7 20.429,-2.7 34.922,0 66.871,23.313 76.411,58.68 2.16,8.192 5.582,15.84 9.992,22.59 1.437,-23.668 8.187,-47.34 20.879,-69.301 12.687,-22.047 20.07,-39.687 39.871,-52.648 -4.953,0.359 -9.903,1.172 -14.762,2.519 -36.539,9.723 -74.07,-7.738 -90.719,-40.051 3.867,-20.878 -2.34,-43.2886 -18.453,-59.398 -13.047,-13.0507 -30.148,-19.5312 -47.25,-19.5312 -8.457,0 -16.918,1.5312 -24.84,4.7695 M 656.012,160.262 c 1.437,-0.09 0.898,-0.18 0.269,-0.18 -0.902,0 -2.07,0.09 -0.269,0.18 m -276.301,118.172 -0.09,0.089 -0.09,0.09 -0.09,0.09 -0.089,0.09 c -0.09,0.09 -0.18,0.18 -0.18,0.27 -0.094,0 -0.184,0.089 -0.274,0.179 l -0.089,0.09 -0.09,0.09 -0.09,0.09 -0.09,0.09 c -0.09,0.089 -0.18,0.179 -0.18,0.269 -0.089,0 -0.179,0.09 -0.269,0.18 l -0.09,0.09 -0.09,0.089 -0.09,0.09 -0.09,0.09 c -0.089,0.094 -0.179,0.184 -0.179,0.274 -0.09,0 -0.18,0.089 -0.27,0.179 l -0.09,0.09 -0.089,0.09 -0.09,0.09 -0.09,0.09 c -0.094,0.09 -0.184,0.179 -0.184,0.269 -0.09,0 -0.179,0.09 -0.269,0.18 l -0.09,0.09 -0.09,0.09 -0.09,0.089 -0.09,0.09 c -0.089,0.09 -0.179,0.18 -0.179,0.27 -0.09,0 -0.18,0.09 -0.27,0.179 l -0.09,0.09 -0.09,0.09 -0.089,0.094 -0.09,0.09 c -0.09,0.09 -0.18,0.179 -0.27,0.359 -0.179,0.09 -0.269,0.18 -0.359,0.27 l -0.094,0.09 -0.09,0.089 c -1.617,1.621 -3.148,3.328 -4.59,5.129 -21.867,26.282 -20.519,65.25 4.141,89.91 26.102,26.102 68.402,26.102 94.5,0 l 0.09,-0.089 0.09,-0.09 0.09,-0.09 0.089,-0.09 0.09,-0.09 0.09,-0.09 c 0,0 0,0 0,-0.089 0.094,0 0.094,0 0.094,0 l 0.09,-0.09 0.09,-0.09 0.089,-0.09 0.09,-0.09 0.09,-0.09 0.09,-0.09 c 0.719,-0.632 1.348,-1.261 1.98,-1.89 0.18,-0.18 0.27,-0.27 0.36,-0.449 0.179,-0.09 0.269,-0.18 0.449,-0.364 0.629,-0.629 1.352,-1.347 1.98,-2.066 25.829,-26.102 25.739,-68.313 -0.269,-94.32 -13.051,-13.051 -30.152,-19.532 -47.25,-19.532 -17.102,0 -34.199,6.481 -47.25,19.532 m 57.148,216 -0.089,0.089 -0.09,0.09 c 0,0 0,0 0,0.09 -0.09,0 -0.09,0 -0.09,0 l -0.09,0.09 -0.09,0.09 -0.09,0.09 -0.09,0.09 -0.089,0.089 -0.09,0.09 -0.09,0.09 -0.09,0.09 c 0,0 0,0 0,0.09 -0.09,0 -0.09,0 -0.09,0 l -0.09,0.09 -0.089,0.089 -0.09,0.09 -0.09,0.09 -0.094,0.09 -0.09,0.09 -0.09,0.09 -0.089,0.089 c 0,0 0,0 0,0.09 -0.09,0 -0.09,0 -0.09,0 l -0.09,0.09 -0.09,0.094 -0.09,0.09 -0.09,0.09 -0.089,0.089 -0.09,0.09 -0.09,0.09 -0.09,0.09 c 0,0 0,0 0,0.09 -0.09,0 -0.09,0 -0.09,0 l -0.09,0.09 -0.09,0.09 -0.089,0.089 -0.09,0.09 -0.09,0.09 -0.09,0.09 -0.09,0.09 -0.09,0.09 c 0,0 -0.089,0.089 -0.089,0.179 -0.09,0 -0.18,0.09 -0.18,0.09 l -0.094,0.09 -0.09,0.09 -0.09,0.09 -0.089,0.089 -0.09,0.09 -0.09,0.09 c 0,0 -0.09,0.094 -0.09,0.184 -0.09,0 -0.18,0.09 -0.18,0.09 l -0.089,0.089 -0.09,0.09 -0.09,0.09 -0.09,0.09 -0.09,0.09 -0.09,0.09 -0.09,0.09 -0.089,0.089 c 0,0 0,0 0,0.09 -0.09,0 -0.09,0 -0.09,0 l -0.09,0.09 -0.09,0.09 -0.09,0.09 -0.09,0.09 -0.089,0.089 -0.09,0.09 -0.09,0.09 -0.094,0.09 c 0,0 0,0 0,0.09 -0.09,0 -0.09,0 -0.09,0 l -0.09,0.09 -0.089,0.089 -0.09,0.09 -0.09,0.09 -0.09,0.094 -0.09,0.09 -0.09,0.09 -0.089,0.089 c 0,0 0,0 0,0.09 -0.09,0 -0.09,0 -0.09,0 l -0.09,0.09 -0.09,0.09 -0.09,0.09 -0.09,0.09 -0.09,0.09 -0.089,0.089 -0.09,0.09 -0.09,0.09 c 0,0 0,0 0,0.09 -0.09,0 -0.09,0 -0.09,0 l -0.09,0.09 -0.09,0.09 -0.089,0.089 -0.09,0.09 -0.09,0.09 -0.094,0.09 -0.09,0.09 -0.09,0.09 c 0,0 -0.089,0.089 -0.089,0.179 -0.09,0 -0.18,0.09 -0.18,0.09 l -0.09,0.094 -0.09,0.09 -0.09,0.09 -0.089,0.089 -0.09,0.09 -0.09,0.09 c 0,0 -0.09,0.09 -0.09,0.18 -0.09,0 -0.18,0.09 -0.18,0.09 l -0.09,0.09 -0.089,0.089 -0.09,0.09 -0.09,0.09 -0.09,0.09 -0.09,0.09 c 0,0 -0.09,0.09 -0.09,0.179 -0.089,0 -0.179,0.09 -0.179,0.09 l -0.09,0.09 -0.094,0.09 -0.09,0.09 -0.09,0.09 -0.089,0.089 -0.09,0.09 -0.09,0.09 -0.09,0.094 c 0,0 0,0 0,0.09 -0.09,0 -0.09,0 -0.09,0 l -0.09,0.09 -0.089,0.089 -0.09,0.09 -0.09,0.09 -0.09,0.09 -0.09,0.09 -0.09,0.09 -0.09,0.09 c 0,0 0,0 0,0.089 -0.089,0 -0.089,0 -0.089,0 l -0.09,0.09 -0.09,0.09 -0.09,0.09 -0.09,0.09 -0.09,0.09 -0.089,0.089 -0.09,0.09 -0.09,0.09 c 0,0 0,0 0,0.09 -0.094,0 -0.094,0 -0.094,0 l -0.09,0.09 -0.09,0.09 -0.089,0.089 -0.09,0.09 -0.09,0.09 -0.09,0.094 -0.09,0.09 -0.09,0.09 c 0,0 0,0 0,0.089 -0.089,0 -0.089,0 -0.089,0 l -0.09,0.09 -0.09,0.09 -0.09,0.09 -0.09,0.09 -0.09,0.09 -0.09,0.09 -0.089,0.089 -0.09,0.09 c 0,0 -0.09,0.09 -0.09,0.18 -0.09,0 -0.18,0.09 -0.18,0.09 l -0.09,0.09 -0.089,0.089 -0.09,0.09 -0.09,0.09 -0.094,0.09 -0.09,0.09 c 0,0 -0.09,0.09 -0.09,0.179 -0.089,0 -0.179,0.09 -0.179,0.09 l -0.09,0.09 -0.09,0.094 -0.09,0.09 -0.09,0.09 -0.089,0.089 -0.09,0.09 -0.09,0.09 -0.09,0.09 c 0,0 0,0 0,0.09 -0.09,0 -0.09,0 -0.09,0 l -0.09,0.09 -0.09,0.09 c -26.101,26.097 -26.101,68.398 0,94.5 22.86,22.949 58.141,25.828 84.149,8.55 3.691,-2.519 7.293,-5.402 10.531,-8.64 l 0.09,-0.09 0.09,-0.09 0.09,-0.09 0.09,-0.09 c 0.089,-0.09 0.179,-0.179 0.179,-0.269 0.09,0 0.18,-0.09 0.27,-0.184 l 0.09,-0.09 0.089,-0.09 0.09,-0.089 0.09,-0.09 c 0.094,-0.09 0.184,-0.18 0.184,-0.27 0.09,0 0.179,-0.09 0.269,-0.179 l 0.09,-0.09 0.09,-0.09 0.09,-0.09 0.09,-0.09 c 0.089,-0.09 0.179,-0.179 0.179,-0.269 0.09,0 0.18,-0.09 0.27,-0.18 l 0.09,-0.09 0.09,-0.09 0.089,-0.09 0.09,-0.089 0.09,-0.09 0.09,-0.09 c 0,0 0.09,-0.094 0.09,-0.184 0.09,0 0.179,-0.09 0.179,-0.09 l 0.09,-0.089 0.09,-0.09 0.094,-0.09 0.09,-0.09 0.09,-0.09 0.089,-0.09 c 0,0 0.09,-0.089 0.09,-0.179 0.09,0 0.18,-0.09 0.18,-0.09 l 0.09,-0.09 0.09,-0.09 0.089,-0.09 0.09,-0.089 0.09,-0.09 0.09,-0.09 c 0,0 0.09,-0.09 0.09,-0.18 0.09,0 0.18,-0.09 0.18,-0.09 l 0.089,-0.09 0.09,-0.089 0.09,-0.09 0.09,-0.09 0.09,-0.094 0.09,-0.09 c 0.089,-0.09 0.179,-0.179 0.179,-0.269 0.09,0 0.184,-0.09 0.274,-0.18 l 0.09,-0.09 0.089,-0.09 0.09,-0.089 0.09,-0.09 c 0.09,-0.09 0.18,-0.18 0.18,-0.27 0.09,0 0.179,-0.09 0.269,-0.179 l 0.09,-0.09 0.09,-0.09 0.09,-0.09 0.09,-0.09 c 0.09,-0.09 0.179,-0.18 0.179,-0.269 0.09,0 0.18,-0.09 0.27,-0.18 l 0.09,-0.094 0.09,-0.09 0.089,-0.09 0.09,-0.089 c 0.09,-0.09 0.184,-0.18 0.184,-0.27 0.09,0 0.18,-0.09 0.269,-0.18 l 0.09,-0.089 0.09,-0.09 0.09,-0.09 0.09,-0.09 0.09,-0.09 0.089,-0.09 c 0,0 0.09,-0.089 0.09,-0.179 0.09,0 0.18,-0.09 0.18,-0.09 l 0.09,-0.09 0.09,-0.09 0.09,-0.09 0.089,-0.09 0.09,-0.089 0.09,-0.09 c 0,0 0.09,-0.09 0.09,-0.184 0.09,0 0.18,-0.09 0.18,-0.09 l 0.089,-0.09 0.09,-0.089 0.09,-0.09 0.094,-0.09 0.09,-0.09 0.09,-0.09 c 0,0 0.089,-0.09 0.089,-0.179 0.09,0 0.18,-0.09 0.18,-0.09 l 0.09,-0.09 0.09,-0.09 0.09,-0.09 0.089,-0.09 0.09,-0.089 0.09,-0.09 c 0.09,-0.09 0.18,-0.18 0.18,-0.27 0.09,0 0.18,-0.09 0.269,-0.18 l 0.09,-0.089 0.09,-0.09 0.09,-0.09 0.09,-0.094 c 0.09,-0.09 0.179,-0.18 0.179,-0.269 0.09,0 0.18,-0.09 0.274,-0.18 l 0.09,-0.09 0.09,-0.09 0.089,-0.09 0.09,-0.089 c 0.09,-0.09 0.18,-0.18 0.18,-0.27 0.09,0 0.18,-0.09 0.269,-0.18 l 0.09,-0.089 0.09,-0.09 0.09,-0.09 0.09,-0.09 c 0.09,-0.09 0.18,-0.18 0.18,-0.27 0.089,0 0.179,-0.089 0.269,-0.179 l 0.09,-0.09 0.09,-0.094 0.09,-0.09 0.089,-0.09 0.09,-0.089 0.09,-0.09 c 0,0 0.094,-0.09 0.094,-0.18 0.09,0 0.18,-0.09 0.18,-0.09 l 0.089,-0.09 0.09,-0.089 0.09,-0.09 0.09,-0.09 0.09,-0.09 0.09,-0.09 c 0,0 0.089,-0.09 0.089,-0.179 0.09,0 0.18,-0.09 0.18,-0.09 l 0.09,-0.09 0.09,-0.09 0.09,-0.09 0.09,-0.09 0.089,-0.09 0.09,-0.089 c 26.102,-26.102 26.102,-68.403 0,-94.5 -13.051,-13.051 -30.148,-19.532 -47.34,-19.532 -17.097,0 -34.199,6.481 -47.25,19.532"
         clip-rule="evenodd"
         id="path1818" /></clipPath><clipPath
       clipPathUnits="userSpaceOnUse"
       id="clipPath62417"><path
         d="M 0,0 H 725.669 V 7.97 H 0 Z"
         id="path62415" /></clipPath><clipPath
       clipPathUnits="userSpaceOnUse"
       id="clipPath62421"><path
         d="M 0,0 H 725.669 V 7.97 H 0 Z"
         id="path62419" /></clipPath><clipPath
       clipPathUnits="userSpaceOnUse"
       id="clipPath62425"><path
         d="M 0,0 H 725.669 V 7.97 H 0 Z"
         id="path62423" /></clipPath><linearGradient
       x1="0"
       y1="0"
       x2="0"
       y2="7.9702101"
       gradientUnits="userSpaceOnUse"
       id="linearGradient62431"><stop
         style="stop-opacity:0;stop-color:#ffffff"
         offset="0"
         id="stop62427" /><stop
         style="stop-opacity:1;stop-color:#ffffff"
         offset="1"
         id="stop62429" /></linearGradient><mask
       maskUnits="userSpaceOnUse"
       x="0"
       y="0"
       width="1"
       height="1"
       id="mask62433"><g
         id="g62455"><g
           clip-path="url(#clipPath62417)"
           id="g62453"><g
             id="g62451"><g
               id="g62449"><g
                 clip-path="url(#clipPath62421)"
                 id="g62447"><g
                   id="g62445"><g
                     id="g62441"><g
                       id="g62439"><g
                         clip-path="url(#clipPath62425)"
                         id="g62437"><path
                           d="M 0,0 H 725.669 V 7.97 H 0 Z"
                           style="fill:url(#linearGradient62431);stroke:none"
                           id="path62435" /></g></g></g><g
                     transform="translate(725.669)"
                     id="g62443" /></g></g></g></g></g></g></mask><clipPath
       clipPathUnits="userSpaceOnUse"
       id="clipPath62469"><path
         d="M 0,0 H 362.8394 V 14.82054 H 0 Z"
         id="path62467" /></clipPath><clipPath
       clipPathUnits="userSpaceOnUse"
       id="clipPath62483"><path
         d="M 0,0 H 362.835 V 272.126 H 0 Z"
         id="path62481" /></clipPath><linearGradient
       x1="0"
       y1="0"
       x2="362.83939"
       y2="0"
       gradientUnits="userSpaceOnUse"
       id="linearGradient62489"><stop
         style="stop-opacity:1;stop-color:#5bd75b"
         offset="0"
         id="stop62485" /><stop
         style="stop-opacity:1;stop-color:#beff59"
         offset="1"
         id="stop62487" /></linearGradient></defs><sodipodi:namedview
     id="namedview4"
     pagecolor="#ffffff"
     bordercolor="#666666"
     borderopacity="1.0"
     inkscape:pageshadow="2"
     inkscape:pageopacity="0.0"
     inkscape:pagecheckerboard="0"
     showgrid="false"
     inkscape:zoom="11.826648"
     inkscape:cx="87.091457"
     inkscape:cy="103.91786"
     inkscape:window-width="1852"
     inkscape:window-height="1056"
     inkscape:window-x="0"
     inkscape:window-y="0"
     inkscape:window-maximized="1"
     inkscape:current-layer="g8"
     inkscape:snap-midpoints="true"
     inkscape:snap-page="true" /><g
     id="g8"
     inkscape:groupmode="layer"
     inkscape:label="ink_ext_XXXXXX"
     transform="matrix(1.3333333,0,0,-1.3333333,24.244143,146.69434)"><path
       d="m 34.57842,52.521167 c -1.315622,-2.279363 -1.761875,-5.060875 -1.026136,-7.803911 1.47148,-5.48438 7.109768,-8.737754 12.594148,-7.266664 5.484511,1.471479 11.122799,-1.781764 12.594279,-7.266275 0.286886,-1.069292 0.73275,-2.053442 1.304443,-2.934899 0.178215,3.069958 1.060323,6.155255 2.708978,9.012421 l 0.001,0.0016 c 1.648265,2.856776 5.503749,6.194773 5.503749,6.194773 -0.520998,-0.364491 -2.047852,-1.433393 0,0 -0.48642,0.02496 -0.03406,0.676854 -0.528667,0.630708 -0.572213,-0.05278 -1.148066,-0.154947 -1.722359,-0.308725 -5.48438,-1.471609 -11.122669,1.781764 -12.594148,7.266145 -1.471089,5.484511 -7.109897,8.737754 -12.593758,7.266794 -2.741996,-0.735869 -4.926467,-2.512954 -6.241569,-4.791927 v 0"
       style="opacity:0.8;fill:#2c672c;fill-opacity:1;fill-rule:nonzero;stroke:none;stroke-width:0.129989"
       id="path14" /><path
       d="m 67.221476,41.732051 c 0,0 0.04069,0.02795 0.136099,0.09502 -5.2e-4,0 -10e-4,-5.2e-4 -0.0016,-5.2e-4 -0.08215,-0.05785 -0.134539,-0.0945 -0.134539,-0.0945 m 0.932803,0.744969 v 5.2e-4 -5.2e-4 m -0.0021,10e-4 h -3.9e-4 3.9e-4 m -0.0019,3.9e-4 c 0,0 -5.2e-4,5.2e-4 -0.0016,5.2e-4 10e-4,0 0.0016,-5.2e-4 0.0016,-5.2e-4 m -0.0016,5.2e-4 c -0.131939,0.05135 -0.142729,0.182375 -0.150268,0.309764 0.0075,-0.127389 0.01833,-0.258418 0.150268,-0.309764"
       style="fill:#cccccc;fill-opacity:1;fill-rule:nonzero;stroke:none;stroke-width:0.129989"
       id="path16" /><path
       d="m 62.755172,36.263399 -2.988715,1.724439 -6.280176,3.623453 c 1.499037,3.215676 0.921625,7.159553 -1.733018,9.814196 -0.0035,0.0035 -0.0075,0.0075 -0.0117,0.01118 -0.004,0.004 -0.0075,0.0081 -0.01157,0.01209 -0.0042,0.0036 -0.0077,0.0077 -0.0117,0.01118 -0.0042,0.004 -0.0077,0.0082 -0.0117,0.01222 -0.004,0.004 -0.0087,0.0081 -0.01274,0.01222 -0.0035,0.0035 -0.007,0.007 -0.01066,0.01118 -0.0061,0.0056 -0.01222,0.0117 -0.01781,0.01716 -0.006,0.0061 -0.01157,0.01222 -0.01716,0.01781 -0.0042,0.004 -0.0082,0.0077 -0.0117,0.0117 -0.004,0.0035 -0.0082,0.0077 -0.0117,0.0117 -0.004,0.004 -0.0082,0.0075 -0.01222,0.0117 -0.0035,0.0035 -0.0075,0.0075 -0.01118,0.0117 -0.004,0.004 -0.0081,0.0075 -0.01209,0.01157 -0.0042,0.0042 -0.0077,0.0082 -0.01118,0.0117 -0.0061,0.0061 -0.01222,0.0117 -0.01833,0.01729 -0.0056,0.0061 -0.01118,0.01222 -0.01729,0.01781 -0.0035,0.004 -0.0071,0.007 -0.01118,0.01118 -0.004,0.004 -0.0075,0.0081 -0.01222,0.01209 -0.0035,0.0042 -0.0075,0.0077 -0.01157,0.0117 -0.0042,0.0042 -0.0077,0.0082 -0.0117,0.0117 -0.0036,0.004 -0.0082,0.0082 -0.0117,0.0117 -0.004,0.004 -0.0077,0.0082 -0.0117,0.01222 -0.0096,0.0096 -0.01976,0.01924 -0.02938,0.02886 -0.01027,0.0098 -0.01937,0.01989 -0.02899,0.02951 -0.004,0.0035 -0.0082,0.0077 -0.0117,0.0117 -0.004,0.0035 -0.0077,0.0075 -0.0117,0.0117 -0.004,0.004 -0.0081,0.0075 -0.01222,0.0117 -0.0035,0.004 -0.007,0.0075 -0.01118,0.01157 -0.0096,0.0097 -0.02028,0.01937 -0.0299,0.02899 -0.0096,0.0096 -0.01885,0.01976 -0.02847,0.02951 -0.004,0.004 -0.0081,0.0075 -0.01209,0.01157 -0.0036,0.0042 -0.0077,0.0082 -0.01118,0.0117 -0.0042,0.0042 -0.0082,0.0077 -0.01222,0.0117 -0.004,0.004 -0.0077,0.0082 -0.01118,0.0117 -0.01014,0.0096 -0.02028,0.01924 -0.03003,0.02951 -0.0096,0.0096 -0.01872,0.01924 -0.02886,0.02886 -0.0036,0.004 -0.0077,0.0082 -0.0117,0.0117 -0.004,0.004 -0.0077,0.0082 -0.0117,0.01222 -0.0035,0.0035 -0.0077,0.0075 -0.0117,0.0117 -0.004,0.0035 -0.0075,0.0075 -0.0117,0.01157 -0.0096,0.0097 -0.01976,0.01937 -0.02938,0.02899 -0.01014,0.0096 -0.01937,0.01976 -0.02899,0.02951 -0.004,0.004 -0.0081,0.0075 -0.0117,0.0117 -0.004,0.0035 -0.0075,0.0075 -0.0117,0.01157 -0.004,0.0042 -0.0081,0.0077 -0.01209,0.0117 -0.0036,0.004 -0.0077,0.0077 -0.01118,0.0117 -0.004,0.004 -0.0087,0.0082 -0.01274,0.01222 -0.0035,0.0035 -0.0072,0.0075 -0.01066,0.01118 -0.0061,0.0061 -0.01222,0.0117 -0.01833,0.01729 -0.0055,0.006 -0.01105,0.01209 -0.01664,0.01768 -0.0042,0.0042 -0.0082,0.0077 -0.01222,0.0117 -0.0036,0.004 -0.0077,0.0082 -0.01118,0.0117 -0.004,0.004 -0.0082,0.0077 -0.01222,0.0117 -0.0035,0.004 -0.0075,0.0081 -0.0117,0.0117 -0.004,0.0045 -0.0081,0.0081 -0.01209,0.01209 -0.0042,0.0042 -0.0071,0.0077 -0.01118,0.01118 -0.0056,0.0061 -0.0117,0.0117 -0.01781,0.01781 -0.0056,0.0056 -0.01118,0.0117 -0.01729,0.01781 -0.0035,0.0035 -0.0077,0.0075 -0.0117,0.01118 -0.004,0.004 -0.0075,0.0081 -0.0117,0.01209 -0.004,0.0036 -0.0075,0.0077 -0.01157,0.01118 -0.0042,0.0042 -0.0077,0.0082 -0.0117,0.01222 -0.0042,0.0035 -0.0082,0.0077 -0.0117,0.0117 -0.004,0.0035 -0.0077,0.0077 -0.0117,0.0117 -0.0056,0.0056 -0.01222,0.0117 -0.01781,0.01729 -0.0061,0.0061 -0.0117,0.01157 -0.01729,0.01768 -0.004,0.0036 -0.0075,0.0071 -0.01105,0.01066 -0.0042,0.0047 -0.0082,0.0087 -0.01222,0.01274 -0.004,0.004 -0.0082,0.0077 -0.0117,0.0117 -0.004,0.0035 -0.0082,0.0075 -0.0117,0.0117 -0.004,0.004 -0.0081,0.0075 -0.01222,0.0117 -0.004,0.004 -0.0075,0.0075 -0.01118,0.01157 -0.01014,0.0097 -0.02028,0.01937 -0.0299,0.02899 -0.0096,0.0096 -0.01885,0.01976 -0.02899,0.02951 -0.0035,0.004 -0.0075,0.0075 -0.0117,0.01157 -0.004,0.0042 -0.0075,0.0082 -0.01157,0.0117 -0.0036,0.0042 -0.0077,0.0082 -0.0117,0.0117 -0.004,0.004 -0.0077,0.0082 -0.0117,0.01222 -0.0096,0.0096 -0.01976,0.01924 -0.02951,0.02899 -0.01014,0.0096 -0.01924,0.01976 -0.02886,0.02938 -0.0042,0.0035 -0.0082,0.0077 -0.0117,0.01118 -0.004,0.004 -0.0077,0.0082 -0.0117,0.01222 -0.004,0.0035 -0.0081,0.0075 -0.01222,0.0117 -0.0035,0.004 -0.007,0.0075 -0.01118,0.0117 -0.0096,0.0096 -0.01976,0.01924 -0.0299,0.02886 -0.0096,0.0096 -0.01885,0.01989 -0.02847,0.02951 -0.004,0.004 -0.0081,0.0075 -0.01222,0.0117 -0.0035,0.004 -0.0075,0.0075 -0.01118,0.01157 -0.004,0.0042 -0.0081,0.0077 -0.01209,0.0117 -0.0042,0.0042 -0.0077,0.0082 -0.01118,0.0117 -0.01014,0.0096 -0.02041,0.01937 -0.03003,0.02899 -0.0096,0.01014 -0.01872,0.01976 -0.02886,0.02938 -0.0036,0.0042 -0.0077,0.0082 -0.0117,0.0117 -0.004,0.004 -0.0077,0.0082 -0.0117,0.01222 -0.0035,0.0035 -0.0077,0.0077 -0.0117,0.01118 -0.004,0.004 -0.0077,0.0081 -0.0117,0.01222 -0.004,0.004 -0.0081,0.0081 -0.01261,0.01209 -0.0036,0.0036 -0.0066,0.0071 -0.01066,0.01118 -0.0056,0.0056 -0.01222,0.01118 -0.01781,0.01729 -0.0056,0.0056 -0.01118,0.0117 -0.01729,0.01781 -0.004,0.0035 -0.0081,0.0075 -0.0117,0.0117 -0.004,0.0035 -0.0075,0.0075 -0.0117,0.0117 -0.004,0.004 -0.0081,0.0075 -0.0117,0.01157 -0.004,0.0036 -0.0075,0.0077 -0.01157,0.0117 -0.0042,0.004 -0.0082,0.0077 -0.01222,0.0117 -0.0035,0.004 -0.0077,0.0077 -0.01118,0.0117 -0.0061,0.0056 -0.01222,0.0117 -0.01833,0.01729 -0.0056,0.0061 -0.01118,0.01209 -0.01677,0.01768 -0.004,0.0042 -0.0075,0.0071 -0.01118,0.01118 -0.0045,0.0042 -0.0081,0.0082 -0.01209,0.01222 -0.0042,0.004 -0.0082,0.0077 -0.01222,0.0117 -0.0035,0.004 -0.0077,0.0081 -0.0117,0.0117 -0.0035,0.004 -0.0075,0.0075 -0.0117,0.0117 -0.004,0.004 -0.0075,0.0081 -0.0117,0.01157 -0.0056,0.0061 -0.01157,0.0117 -0.01768,0.01781 -0.0056,0.0056 -0.01118,0.0117 -0.01729,0.01781 -0.0035,0.0035 -0.0071,0.0071 -0.01118,0.01066 -0.004,0.004 -0.0082,0.0081 -0.01222,0.01274 -0.0035,0.0035 -0.0075,0.0075 -0.0117,0.01118 -0.004,0.004 -0.0075,0.0081 -0.01157,0.01209 -0.0042,0.0036 -0.0077,0.0077 -0.0117,0.01118 -0.0042,0.004 -0.0077,0.0082 -0.0117,0.01222 -0.0096,0.0096 -0.01976,0.01924 -0.03003,0.02899 -0.0096,0.0096 -0.01872,0.01976 -0.02834,0.02938 -0.0042,0.004 -0.0082,0.0077 -0.0117,0.0117 -0.004,0.0035 -0.0082,0.0077 -0.0117,0.0117 -0.004,0.004 -0.0082,0.0075 -0.01222,0.0117 -0.0035,0.004 -0.0075,0.0075 -0.01118,0.0117 -0.01014,0.0096 -0.02028,0.01924 -0.0299,0.02886 -0.0096,0.01014 -0.01885,0.01989 -0.02899,0.02951 -0.0035,0.004 -0.0075,0.0075 -0.0117,0.0117 -0.004,0.004 -0.0075,0.0081 -0.0117,0.01157 -0.0035,0.0042 -0.0075,0.0077 -0.01157,0.0117 -0.0042,0.0042 -0.0077,0.0082 -0.0117,0.0117 -0.0096,0.01014 -0.01989,0.01989 -0.02951,0.02951 -0.0096,0.0096 -0.01924,0.01924 -0.02886,0.02938 -0.0042,0.0036 -0.0077,0.0077 -0.0117,0.01118 -0.0042,0.004 -0.0077,0.0082 -0.0117,0.01222 -0.004,0.0035 -0.0082,0.0077 -0.01222,0.0117 -0.0035,0.0035 -0.0072,0.0075 -0.01118,0.0117 -0.427015,0.427015 -0.887568,0.800215 -1.372948,1.119599 -1.448211,0.963741 -3.120264,1.445091 -4.792837,1.445091 -2.222038,0 -4.445636,-0.85104 -6.141607,-2.552991 -0.554925,-0.555574 -1.019507,-1.166914 -1.392706,-1.816341 l -1.357349,0.782926 c 1.315102,2.277933 3.499054,4.054628 6.240529,4.790368 0.892117,0.23918 1.788393,0.353441 2.670371,0.353441 4.537928,0 8.691998,-3.028362 9.923907,-7.620106 1.231779,-4.592394 5.384939,-7.620236 9.923387,-7.620236 0.881978,0 1.778124,0.114261 2.670371,0.353441 0.574683,0.154428 1.150536,0.256469 1.723269,0.309245 0.01677,0.0021 0.0325,0.0026 0.04732,0.0026 0.206163,0 0.211753,-0.147798 0.220852,-0.301186 0.0075,-0.127389 0.01833,-0.258418 0.150268,-0.309764 v 0 c 10e-4,0 0.0016,-5.2e-4 0.0016,-5.2e-4 5.2e-4,0 0.001,0 0.0016,-3.9e-4 h 3.9e-4 c 5.19e-4,-5.2e-4 0.001,-5.2e-4 0.0021,-5.2e-4 v -5.2e-4 c 0.02899,-0.01014 0.06343,-0.01677 0.104642,-0.01885 v 0 c -0.319384,-0.210193 -0.61849,-0.419866 -0.901346,-0.631099 -0.09541,-0.06707 -0.136099,-0.09502 -0.136099,-0.09502 0,0 0.05239,0.03666 0.134539,0.0945 -1.990917,-1.487728 -3.157702,-3.062419 -4.600843,-5.563154 v 0"
       style="opacity:0.77;fill:#2c672c;fill-opacity:1;fill-rule:nonzero;stroke:none;stroke-width:0.129989"
       id="path18" /><path
       d="m 25.710677,19.391691 c 5.2e-4,-2.631764 1.004947,-5.263528 3.013673,-7.271214 4.016541,-4.013941 10.526667,-4.0114712 14.540089,0.0051 4.013811,4.016411 10.523547,4.01849 14.539958,0.0045 0.782926,-0.782536 1.661394,-1.411684 2.597188,-1.889005 -1.380097,2.747585 -2.159514,5.8607 -2.160553,9.15918 v 0.0016 c -5.2e-4,3.297959 0.776946,6.411594 2.155093,9.159699 l 0.0014,0.0021 C 59.461242,28.085769 58.582774,27.455581 57.799848,26.672135 53.785907,22.655594 47.2763,22.653644 43.259759,26.667065 39.243348,30.681006 32.733221,30.678407 28.7198,26.662516 26.713025,24.65418 25.710287,22.022936 25.710677,19.391691"
       style="opacity:0.8;fill:#245624;fill-opacity:1;fill-rule:nonzero;stroke:none;stroke-width:0.129989"
       id="path20" /><path
       d="m 25.710677,19.391691 c -3.9e-4,2.630725 1.002348,5.261059 3.009123,7.268745 2.007686,2.009245 4.63945,3.013673 7.272254,3.013673 2.629815,0 5.260539,-1.002868 7.267705,-3.009124 2.007295,-2.005735 4.63698,-3.008473 7.267315,-3.008473 2.632284,0 5.265088,1.004818 7.272774,3.013543 0.782406,0.783576 1.660874,1.413114 2.596277,1.891475 -0.103082,-0.205643 -0.202653,-0.413886 -0.299106,-0.623559 -0.06915,-0.149228 -0.135578,-0.300015 -0.201093,-0.451453 -1.064873,-2.474867 -1.655414,-5.209193 -1.654894,-8.084687 v 0 l -3.450308,-0.001 -8.211557,-0.0025 c -0.37177,1.437942 -1.117128,2.79984 -2.235297,3.929058 -0.08228,0.08995 -0.166516,0.178735 -0.253349,0.265568 -0.01781,0.01781 -0.03549,0.0351 -0.0533,0.05239 -0.01729,0.01768 -0.03458,0.03549 -0.05187,0.0533 -0.08371,0.08319 -0.169506,0.164436 -0.255819,0.24373 -5.2e-4,5.19e-4 -10e-4,0.001 -0.0016,0.0019 -0.004,0.0036 -0.0082,0.0077 -0.01222,0.01118 -0.0035,0.0042 -0.0075,0.0082 -0.01118,0.01222 -0.004,0.0035 -0.0081,0.0077 -0.01209,0.01118 -0.0042,0.004 -0.0077,0.0082 -0.01118,0.01222 -0.0042,0.0035 -0.0082,0.0075 -0.01222,0.0117 -0.004,0.004 -0.0077,0.0075 -0.01118,0.0117 -0.0021,0.0014 -0.0045,0.004 -0.0061,0.0055 -0.0021,0.0021 -0.004,0.0042 -0.0061,0.0061 -0.003,0.0036 -0.0071,0.0066 -0.01066,0.01014 -0.003,0.0036 -0.0066,0.0071 -0.01014,0.01079 -10e-4,9.1e-4 -0.0016,0.0014 -0.0026,0.0025 v 0 c -0.02184,0.02236 -0.04355,0.0442 -0.06538,0.06655 -0.0036,0.003 -0.0071,0.0066 -0.01066,0.01014 -0.0036,0.0035 -0.0066,0.0072 -0.01027,0.01066 -0.0035,0.0035 -0.007,0.0071 -0.01066,0.01066 -0.0035,0.0035 -0.007,0.0071 -0.01066,0.01066 -0.0035,0.0035 -0.007,0.0071 -0.01066,0.01014 -0.0035,0.0035 -0.007,0.0071 -0.01066,0.01066 -0.003,0.0035 -0.0066,0.0071 -0.01014,0.01066 -0.0035,0.0036 -0.0071,0.0071 -0.01066,0.01066 -0.0035,0.0036 -0.0072,0.0071 -0.01066,0.01066 -0.0035,0.0036 -0.0071,0.0071 -0.01066,0.01066 -0.0035,0.0036 -0.0071,0.0071 -0.01014,0.01014 -0.0035,0.0036 -0.0077,0.0071 -0.01066,0.01066 -0.0035,0.0036 -0.0071,0.0071 -0.01066,0.01066 -0.0035,0.0036 -0.0071,0.0072 -0.01066,0.01066 -0.0036,0.0036 -0.0072,0.0071 -0.01066,0.01079 -0.0036,0.0035 -0.0071,0.0065 -0.01066,0.01014 -0.0036,0.0035 -0.0066,0.007 -0.01014,0.01066 -0.0036,0.0035 -0.0071,0.007 -0.01066,0.01066 -0.0036,0.0035 -0.0071,0.007 -0.01066,0.01066 -0.0036,0.0035 -0.0071,0.007 -0.01066,0.01066 -0.0036,0.003 -0.0071,0.0066 -0.01066,0.01014 -0.0036,0.0035 -0.0066,0.0072 -0.01027,0.01066 -0.0035,0.0035 -0.007,0.0072 -0.01066,0.01066 -0.0035,0.0035 -0.007,0.0071 -0.01066,0.01066 -0.0035,0.0035 -0.007,0.0071 -0.01066,0.01014 -0.0035,0.0035 -0.007,0.0071 -0.01066,0.01066 -0.003,0.0035 -0.0066,0.0071 -0.01014,0.01066 -0.0035,0.0036 -0.0071,0.0071 -0.01066,0.01066 -0.0035,0.0036 -0.0072,0.0071 -0.01066,0.01066 -0.0035,0.0036 -0.0072,0.0071 -0.01066,0.01066 -0.0035,0.0036 -0.0072,0.0066 -0.01014,0.01014 -0.004,0.0036 -0.0077,0.0071 -0.01066,0.01066 -0.0035,0.0036 -0.0071,0.0071 -0.01066,0.01066 -0.0035,0.0036 -0.0071,0.0071 -0.01066,0.01066 -0.0016,0.001 -0.0026,0.0021 -0.0036,0.0036 -0.0055,0.0056 -0.01157,0.0117 -0.01768,0.01729 -0.0036,0.0035 -0.0072,0.007 -0.01014,0.01066 -0.0036,0.0035 -0.0071,0.007 -0.01066,0.01066 -0.0036,0.0035 -0.0071,0.007 -0.01066,0.01066 -0.0036,0.0035 -0.0071,0.007 -0.01066,0.01066 -0.0036,0.0035 -0.0071,0.007 -0.01066,0.01066 -0.0036,0.003 -0.0066,0.0066 -0.01027,0.01014 -0.0035,0.0035 -0.007,0.0071 -0.01066,0.01066 -0.0035,0.0035 -0.007,0.0071 -0.01066,0.01066 -0.0035,0.0035 -0.007,0.0071 -0.01066,0.01066 -0.0035,0.0035 -0.007,0.0071 -0.01066,0.01014 -0.003,0.0035 -0.0066,0.0071 -0.01066,0.01066 -0.003,0.0036 -0.0066,0.0071 -0.01014,0.01066 -0.0035,0.0036 -0.0071,0.0071 -0.01066,0.01066 -0.0035,0.0036 -0.0071,0.0071 -0.01066,0.01066 -0.0035,0.0036 -0.0072,0.0071 -0.01066,0.01014 -0.0035,0.0036 -0.0072,0.0071 -0.01014,0.01066 -0.0035,0.0036 -0.0072,0.0071 -0.01066,0.01066 -0.0035,0.0036 -0.0071,0.0071 -0.01066,0.01066 -0.0056,0.0056 -0.0117,0.0117 -0.01781,0.01729 -10e-4,0.0016 -0.0021,0.0026 -0.0035,0.0036 -0.0036,0.004 -0.0066,0.007 -0.01014,0.01066 -0.0036,0.0035 -0.0071,0.007 -0.01066,0.01066 -0.0036,0.0035 -0.0072,0.007 -0.01066,0.01066 -0.0036,0.0035 -0.0071,0.007 -0.01066,0.01066 -0.0036,0.0035 -0.0072,0.007 -0.01066,0.01066 -0.0036,0.003 -0.0066,0.0066 -0.01079,0.01014 -0.0035,0.0035 -0.0065,0.0071 -0.01014,0.01066 -0.0035,0.0035 -0.007,0.0071 -0.01066,0.01066 -0.0035,0.0035 -0.007,0.0071 -0.01066,0.01066 -0.0035,0.0035 -0.007,0.0071 -0.01066,0.01014 -0.0035,0.0035 -0.007,0.0072 -0.01066,0.01066 -0.003,0.0036 -0.0066,0.0071 -0.01014,0.01066 -0.0035,0.0036 -0.0071,0.0071 -0.01066,0.01066 -0.0035,0.0036 -0.0071,0.0071 -0.01066,0.01066 -0.0035,0.0036 -0.0071,0.0071 -0.01066,0.01014 -0.0035,0.0036 -0.0071,0.0071 -0.01014,0.01066 -0.0035,0.0036 -0.0072,0.0071 -0.01066,0.01066 -0.0035,0.0036 -0.0072,0.0071 -0.01066,0.01066 -0.0036,0.0036 -0.0072,0.0071 -0.01066,0.01079 -0.0036,0.0035 -0.0071,0.0065 -0.01066,0.01014 -0.0036,0.004 -0.0071,0.007 -0.01014,0.01066 -0.0036,0.0035 -0.0071,0.007 -0.01066,0.01066 -0.0036,0.0035 -0.0071,0.007 -0.01066,0.01066 -0.0036,0.0035 -0.0071,0.007 -0.01066,0.01066 -0.0036,0.0035 -0.0072,0.007 -0.01066,0.01066 -0.0036,0.003 -0.0071,0.0066 -0.01079,0.01014 -0.0035,0.0035 -0.0065,0.0071 -0.01014,0.01066 -0.0035,0.0035 -0.007,0.0071 -0.01066,0.01066 -0.0035,0.0035 -0.007,0.0071 -0.01066,0.01066 -0.0035,0.0035 -0.007,0.0071 -0.01066,0.01014 -0.0035,0.0035 -0.007,0.0071 -0.01066,0.01066 -0.003,0.0036 -0.0066,0.0071 -0.01014,0.01066 -0.0035,0.0036 -0.0071,0.0071 -0.01066,0.01066 -0.0035,0.0036 -0.0072,0.0071 -0.01066,0.01066 -0.001,0.001 -0.0025,0.0021 -0.0035,0.0036 -0.0056,0.0056 -0.0117,0.01157 -0.01729,0.01716 -0.0035,0.0036 -0.0071,0.0071 -0.01066,0.01066 -0.0035,0.0036 -0.0071,0.0071 -0.01066,0.01066 -0.0036,0.0036 -0.0071,0.0071 -0.01066,0.01079 -0.0036,0.0035 -0.0072,0.007 -0.01066,0.01066 -0.0036,0.0035 -0.0066,0.0065 -0.01014,0.01014 -0.0042,0.0035 -0.0072,0.007 -0.01066,0.01066 -0.0036,0.0035 -0.0071,0.007 -0.01066,0.01066 -0.0036,0.0035 -0.0071,0.007 -0.01066,0.01066 -0.0036,0.0035 -0.0071,0.007 -0.01066,0.01066 -0.0036,0.003 -0.0071,0.0066 -0.01079,0.01014 -0.0035,0.0035 -0.0065,0.0071 -0.01014,0.01066 -0.0035,0.0035 -0.007,0.0071 -0.01066,0.01066 -0.0061,0.0061 -0.0117,0.0117 -0.01768,0.01781 -10e-4,0.001 -0.0021,0.002 -0.0036,0.003 -0.0035,0.0035 -0.007,0.0077 -0.01066,0.01066 -0.003,0.0036 -0.0066,0.0071 -0.01066,0.01066 -0.003,0.0036 -0.0066,0.0071 -0.01014,0.01066 -0.0035,0.0036 -0.0072,0.0071 -0.01066,0.01066 -0.0035,0.0036 -0.0071,0.0071 -0.01066,0.01066 -0.0035,0.0036 -0.0072,0.0066 -0.01066,0.01014 -0.0035,0.0036 -0.0072,0.0071 -0.01014,0.01066 -0.0035,0.0036 -0.0071,0.0071 -0.01066,0.01066 -0.0036,0.0036 -0.0071,0.0071 -0.01066,0.01079 -0.0036,0.0035 -0.0071,0.007 -0.01066,0.01066 -0.0036,0.0035 -0.0071,0.0065 -0.01066,0.01014 -0.0036,0.0035 -0.0066,0.007 -0.01014,0.01066 -0.0036,0.0035 -0.0072,0.007 -0.01066,0.01066 -0.0036,0.0035 -0.0072,0.007 -0.01066,0.01066 -0.0036,0.0035 -0.0071,0.007 -0.01066,0.01066 -0.0036,0.003 -0.0071,0.0066 -0.01079,0.01014 -0.0035,0.0035 -0.0065,0.0071 -0.01014,0.01066 -0.0035,0.0035 -0.007,0.0071 -0.01066,0.01066 -0.0035,0.0035 -0.007,0.0071 -0.01066,0.01066 -0.0035,0.0035 -0.007,0.0071 -0.01066,0.01014 -0.0035,0.004 -0.007,0.0077 -0.01066,0.01066 -0.003,0.0036 -0.0066,0.0071 -0.01066,0.01066 -0.003,0.0036 -0.0066,0.0071 -0.01014,0.01066 -0.0035,0.0036 -0.0071,0.0071 -0.01066,0.01066 -1.696491,1.696491 -3.919959,2.544931 -6.144077,2.544931 -2.223467,0 -4.447065,-0.84844 -6.143426,-2.544931 -1.684792,-1.684792 -2.532843,-3.889022 -2.544932,-6.096761 l -1.640725,-5.2e-4"
       style="opacity:0.8;fill:#245624;fill-opacity:1;fill-rule:nonzero;stroke:none;stroke-width:0.129989"
       id="path22" /><path
       d="m 37.327045,41.316215 c 3.393372,-3.392852 8.894651,-3.392852 12.288023,0 3.392982,3.393502 3.392982,8.894651 0,12.287503 -3.393372,3.393502 -8.894651,3.393502 -12.288023,0 -3.392982,-3.392852 -3.392982,-8.894001 0,-12.287503"
       style="fill:#ffffff;fill-opacity:1;fill-rule:nonzero;stroke:none;stroke-width:0.129989"
       id="path24" /><path
       d="m 29.896334,13.245145 c 3.392852,-3.393502 8.894521,-3.393502 12.287503,0 3.392982,3.392852 3.392982,8.894651 0,12.287503 -3.392982,3.392982 -8.894651,3.392982 -12.287503,0 -3.393502,-3.392852 -3.393502,-8.894651 0,-12.287503"
       style="fill:#ffffff;fill-opacity:1;fill-rule:nonzero;stroke:none;stroke-width:0.129989"
       id="path280" /><path
       d="M 67.866353,-4.6811663 C 61.701088,1.4840985 57.88772,10.002041 57.88772,19.41054 c 0,9.408369 3.813368,17.926311 9.978633,24.092096 L 91.958579,19.41054 67.866353,-4.6811663"
       style="fill:#ffffff;fill-opacity:1;fill-rule:nonzero;stroke:none;stroke-width:0.129989"
       id="path284" /><path
       d="m 79.081574,6.5334049 -8.584887,-8.5848867 c -1.833109,1.83505966 -3.460446,3.9356876 -4.818835,6.2887548 l 10.512369,6.069333 c 0.815033,-1.4120746 1.791513,-2.6718014 2.891353,-3.7732011"
       style="fill:#e2e2e2;fill-opacity:1;fill-rule:nonzero;stroke:none;stroke-width:0.129989"
       id="path286" /><path
       d="m 76.190221,10.306606 v 0 L 65.677852,4.237273 v 0 c -1.358778,2.3530672 -2.364116,4.8125957 -3.036941,7.31801 L 74.3679,14.697386 c 0.403617,-1.503067 1.006898,-2.979096 1.822321,-4.39078"
       style="fill:#e2e2e2;fill-opacity:1;fill-rule:nonzero;stroke:none;stroke-width:0.129989"
       id="path288" /><g
       id="g68480"
       style="fill:#2c672c;fill-opacity:1;stroke:#2c672c"
       transform="matrix(1.2998935,0,0,1.2998935,-17.329447,-25.129661)"><path
         d="m 74.1684,44.1711 c -0.8766,-0.8758 -1.6219,-1.8531 -2.2262,-2.902 l -8.0879,4.6696 c 1.007,1.7484 2.2488,3.3773 3.7098,4.8363 l 6.6043,-6.6039"
         style="fill:#2c672c;fill-opacity:1;fill-rule:nonzero;stroke:#2c672c;stroke-width:0.1"
         id="path290" /><path
         d="m 70.5445,37.8898 -9.0199,2.4168 c 0.5262,1.9637 1.3078,3.859 2.3297,5.6321 l 8.0879,-4.6696 c -0.6129,-1.064 -1.0817,-2.2011 -1.3977,-3.3793"
         style="fill:#2c672c;fill-opacity:1;fill-rule:nonzero;stroke:#2c672c;stroke-width:0.1"
         id="path292" /></g><g
       id="g68484"
       style="fill:#245624;fill-opacity:1;stroke:#245624"
       transform="matrix(1.2998935,0,0,1.2998935,-17.329447,-25.129661)"><path
         d="m 70.5422,30.6387 -9.0215,-2.4172 c -0.5355,1.9937 -0.7965,4.0254 -0.7945,6.043 h 9.339 c -7e-4,-1.2106 0.1559,-2.4293 0.477,-3.6258"
         style="fill:#245624;fill-opacity:1;fill-rule:nonzero;stroke:#245624;stroke-width:0.1"
         id="path294" /><path
         d="m 70.0652,34.2645 h -9.339 c 0.0015,2.0464 0.2722,4.0785 0.7984,6.0421 l 9.0199,-2.4168 c -0.3156,-1.1781 -0.4781,-2.3972 -0.4793,-3.6253"
         style="fill:#245624;fill-opacity:1;fill-rule:nonzero;stroke:#245624;stroke-width:0.1"
         id="path296" /></g><path
       d="m 123.86758,53.731238 c -0.001,-2.632284 -1.00481,-5.264049 -3.01445,-7.271864 -4.01667,-4.013421 -10.52589,-4.011342 -14.53931,0.0052 -4.01394,4.016411 -10.523545,4.018491 -14.540606,0.0046 -0.782926,-0.782536 -1.660874,-1.411684 -2.596667,-1.889005 1.380097,2.747585 2.158993,5.8607 2.160553,9.159179 l -5.2e-4,0.0016 c 0.001,3.29848 -0.776426,6.411595 -2.154963,9.1597 l -0.001,0.0025 c 0.936313,-0.478231 1.814781,-1.10842 2.597707,-1.891865 4.013941,-4.016541 10.523546,-4.018491 14.540086,-0.0051 4.01641,4.013941 10.52589,4.011861 14.53996,-0.0046 2.00704,-2.008335 3.00925,-4.63958 3.00925,-7.270304 v 0"
       style="opacity:0.8;fill:#3a8a3a;fill-opacity:1;fill-rule:nonzero;stroke:none;stroke-width:0.129989"
       id="path298" /><path
       d="m 123.86758,53.731238 h -1.64176 c -0.0117,2.207739 -0.85923,4.411968 -2.54389,6.09676 -1.69636,1.696491 -3.92048,2.544932 -6.1446,2.544932 -2.22308,0 -4.44654,-0.848441 -6.14304,-2.544932 -0.004,-0.0035 -0.007,-0.007 -0.0106,-0.01066 -0.004,-0.0035 -0.007,-0.007 -0.0107,-0.01066 -0.004,-0.003 -0.007,-0.0066 -0.0107,-0.01014 -0.004,-0.0035 -0.007,-0.0071 -0.0101,-0.01066 -0.004,-0.0035 -0.007,-0.0072 -0.0107,-0.01066 -0.004,-0.0035 -0.007,-0.0071 -0.0107,-0.01066 -0.004,-0.0035 -0.007,-0.0072 -0.0107,-0.01014 -0.004,-0.0036 -0.007,-0.0077 -0.0107,-0.01066 -0.004,-0.0036 -0.007,-0.0071 -0.0107,-0.01066 -0.004,-0.0036 -0.007,-0.0071 -0.0101,-0.01066 -0.006,-0.0056 -0.0117,-0.0117 -0.0178,-0.01729 -0.001,-0.0016 -0.003,-0.0026 -0.004,-0.004 -0.004,-0.0036 -0.007,-0.0066 -0.0106,-0.01014 -0.004,-0.0036 -0.007,-0.0072 -0.0107,-0.01066 -0.004,-0.0036 -0.007,-0.0072 -0.0103,-0.01079 -0.004,-0.0035 -0.007,-0.007 -0.0107,-0.01066 -0.004,-0.0035 -0.007,-0.007 -0.0107,-0.01066 -0.004,-0.0035 -0.007,-0.007 -0.0107,-0.01066 -0.004,-0.003 -0.007,-0.0065 -0.0107,-0.01014 -0.003,-0.0035 -0.007,-0.007 -0.0101,-0.01066 -0.004,-0.0035 -0.007,-0.007 -0.0107,-0.01066 -0.004,-0.0035 -0.007,-0.007 -0.0107,-0.01066 -0.004,-0.0035 -0.007,-0.0071 -0.0107,-0.01066 -0.004,-0.003 -0.007,-0.0066 -0.0106,-0.01014 -0.003,-0.0035 -0.007,-0.0071 -0.0101,-0.01066 -0.004,-0.0035 -0.007,-0.0071 -0.0107,-0.01066 -0.004,-0.0035 -0.007,-0.0071 -0.0107,-0.01066 -0.004,-0.0035 -0.007,-0.0072 -0.0107,-0.01014 -0.004,-0.0036 -0.007,-0.0072 -0.0107,-0.01066 -0.004,-0.0036 -0.007,-0.0071 -0.0101,-0.01066 -0.004,-0.0036 -0.007,-0.0071 -0.0107,-0.01066 -0.004,-0.0036 -0.007,-0.0071 -0.0107,-0.01066 -0.004,-0.0036 -0.007,-0.0066 -0.0107,-0.01014 -0.004,-0.0036 -0.007,-0.0071 -0.0107,-0.01066 -0.004,-0.0036 -0.007,-0.0072 -0.0103,-0.01079 -0.004,-0.0035 -0.007,-0.007 -0.0107,-0.01066 -0.004,-0.0035 -0.007,-0.007 -0.0107,-0.01066 -0.004,-0.0035 -0.007,-0.007 -0.0107,-0.01066 -0.004,-0.003 -0.007,-0.0065 -0.0107,-0.01014 -0.003,-0.0035 -0.007,-0.007 -0.0101,-0.01066 -0.004,-0.0035 -0.007,-0.007 -0.0107,-0.01066 -0.004,-0.0035 -0.007,-0.007 -0.0107,-0.01066 -0.004,-0.0035 -0.007,-0.0071 -0.0107,-0.01066 -0.004,-0.003 -0.007,-0.0066 -0.0101,-0.01014 -0.004,-0.0035 -0.008,-0.0071 -0.0107,-0.01066 -0.004,-0.0035 -0.007,-0.0071 -0.0107,-0.01066 -0.004,-0.0035 -0.007,-0.0071 -0.0106,-0.01066 -0.004,-0.0035 -0.007,-0.0071 -0.0107,-0.01014 -0.004,-0.0036 -0.007,-0.0071 -0.0107,-0.01066 -0.004,-0.0036 -0.007,-0.0071 -0.0101,-0.01066 -0.004,-0.0036 -0.007,-0.0072 -0.0107,-0.01066 -0.004,-0.0036 -0.007,-0.0072 -0.0107,-0.01066 -0.004,-0.0036 -0.007,-0.0066 -0.0107,-0.01014 -0.004,-0.0036 -0.007,-0.0071 -0.0107,-0.01066 -0.001,-0.0016 -0.002,-0.0026 -0.004,-0.0042 -0.006,-0.0056 -0.0117,-0.0117 -0.0173,-0.01729 -0.004,-0.0035 -0.007,-0.007 -0.0107,-0.01066 -0.004,-0.0035 -0.007,-0.007 -0.0107,-0.01066 -0.004,-0.003 -0.007,-0.0065 -0.0106,-0.01014 -0.004,-0.0035 -0.007,-0.007 -0.0107,-0.01066 -0.003,-0.0035 -0.007,-0.007 -0.0101,-0.01066 -0.004,-0.0035 -0.007,-0.007 -0.0107,-0.01066 -0.006,-0.0056 -0.0117,-0.0117 -0.0178,-0.01729 -9.1e-4,-0.0014 -0.002,-0.0025 -0.004,-0.004 -0.004,-0.003 -0.007,-0.0066 -0.0101,-0.01014 -0.004,-0.0035 -0.007,-0.0072 -0.0107,-0.01066 -0.004,-0.0035 -0.007,-0.0071 -0.0107,-0.01066 -0.004,-0.0035 -0.007,-0.0071 -0.0107,-0.01066 -0.004,-0.0035 -0.007,-0.0071 -0.0107,-0.01014 -0.004,-0.0036 -0.007,-0.0071 -0.0101,-0.01066 -0.004,-0.0036 -0.007,-0.0071 -0.0106,-0.01066 -0.004,-0.0036 -0.007,-0.0072 -0.0107,-0.01066 -0.004,-0.0036 -0.007,-0.0071 -0.0107,-0.01066 -0.004,-0.0036 -0.007,-0.0066 -0.0107,-0.01014 -0.004,-0.0036 -0.007,-0.0071 -0.0107,-0.01079 -0.004,-0.0035 -0.007,-0.007 -0.0103,-0.01066 -0.004,-0.0035 -0.007,-0.007 -0.0107,-0.01066 -0.004,-0.0035 -0.007,-0.007 -0.0107,-0.01066 -0.004,-0.003 -0.007,-0.0065 -0.0107,-0.01014 -0.004,-0.0035 -0.007,-0.007 -0.0107,-0.01066 -0.003,-0.0035 -0.007,-0.007 -0.0101,-0.01066 -0.004,-0.0035 -0.007,-0.007 -0.0107,-0.01066 -0.004,-0.0035 -0.007,-0.0071 -0.0107,-0.01066 -0.004,-0.003 -0.007,-0.0066 -0.0107,-0.01066 -0.004,-0.003 -0.007,-0.0066 -0.0101,-0.01014 -0.004,-0.0035 -0.007,-0.0071 -0.0107,-0.01066 -0.004,-0.0035 -0.007,-0.0071 -0.0107,-0.01066 -0.004,-0.0035 -0.007,-0.0072 -0.0107,-0.01066 -0.004,-0.0035 -0.007,-0.0071 -0.0107,-0.01014 -0.004,-0.0036 -0.007,-0.0071 -0.0101,-0.01066 -0.004,-0.0036 -0.007,-0.0071 -0.0107,-0.01066 -0.004,-0.0036 -0.007,-0.0071 -0.0107,-0.01066 -0.004,-0.0036 -0.007,-0.0071 -0.0107,-0.01066 -0.004,-0.0036 -0.007,-0.0066 -0.0106,-0.01014 -0.004,-0.0036 -0.007,-0.0072 -0.0107,-0.01079 -0.004,-0.0035 -0.007,-0.007 -0.0103,-0.01066 -0.004,-0.0035 -0.007,-0.007 -0.0107,-0.01066 -0.004,-0.0035 -0.007,-0.007 -0.0107,-0.01066 -0.004,-0.003 -0.007,-0.0065 -0.0107,-0.01014 -0.004,-0.0035 -0.007,-0.007 -0.0107,-0.01066 -0.003,-0.0035 -0.007,-0.007 -0.0101,-0.01066 -0.004,-0.0035 -0.007,-0.007 -0.0107,-0.01066 -0.004,-0.0035 -0.007,-0.0072 -0.0107,-0.01066 -0.004,-0.003 -0.007,-0.0071 -0.0107,-0.01066 -0.004,-0.003 -0.007,-0.0066 -0.0101,-0.01014 -0.004,-0.0035 -0.007,-0.0071 -0.0107,-0.01066 -0.004,-0.0035 -0.007,-0.0071 -0.0107,-0.01066 -0.004,-0.0035 -0.007,-0.0071 -0.0107,-0.01066 -0.004,-0.0035 -0.007,-0.0071 -0.0107,-0.01014 -0.004,-0.0036 -0.007,-0.0072 -0.0101,-0.01066 -0.004,-0.0036 -0.008,-0.0071 -0.0107,-0.01066 -0.004,-0.0036 -0.007,-0.0071 -0.0107,-0.01066 -0.002,-0.001 -0.003,-0.0026 -0.004,-0.0036 -0.006,-0.0056 -0.0117,-0.0117 -0.0177,-0.01716 -0.004,-0.0036 -0.007,-0.0071 -0.0107,-0.01079 -0.003,-0.0025 -0.005,-0.0055 -0.008,-0.0081 -0.0807,-0.07513 -0.1604,-0.152348 -0.2397,-0.230991 -0.0173,-0.01729 -0.0344,-0.03562 -0.0517,-0.05343 -0.0178,-0.01716 -0.0356,-0.03393 -0.0533,-0.05174 -0.0173,-0.01781 -0.0346,-0.03549 -0.0519,-0.05329 -0.0177,-0.01729 -0.036,-0.03458 -0.0533,-0.05187 -0.0178,-0.01768 -0.0346,-0.03601 -0.0523,-0.0533 -0.0173,-0.01768 -0.0356,-0.03445 -0.0533,-0.05226 -0.0173,-0.01729 -0.0346,-0.03549 -0.0519,-0.05329 -0.0178,-0.01729 -0.0355,-0.03458 -0.0533,-0.05187 -0.004,-0.004 -0.008,-0.0086 -0.0122,-0.01261 -0.004,-0.0036 -0.008,-0.0071 -0.0112,-0.01066 -0.0136,-0.01378 -0.0269,-0.02795 -0.0406,-0.04173 -0.0138,-0.01313 -0.0274,-0.02691 -0.0412,-0.04004 -0.004,-0.004 -0.007,-0.0077 -0.0112,-0.01118 -0.004,-0.0046 -0.008,-0.0082 -0.0121,-0.01274 -0.0178,-0.01729 -0.0351,-0.03549 -0.0524,-0.05278 -0.0177,-0.01781 -0.0355,-0.03458 -0.0533,-0.05226 -0.63981,-0.639807 -1.15821,-1.354229 -1.55675,-2.116486 -0.31484,-0.597041 -0.55558,-1.22372 -0.72158,-1.865478 l -8.210643,0.0025 v 0 l -3.450827,10e-4 c 0.001,2.877054 -0.590542,5.61294 -1.656324,8.088847 0.11881,0.192905 0.230991,0.390878 0.337192,0.593012 0.624469,-0.397118 1.21605,-0.867809 1.760836,-1.413634 2.007815,-2.008726 4.64062,-3.013543 7.272384,-3.013543 2.630202,0 5.260022,1.002737 7.267702,3.008993 2.00717,2.005736 4.6375,3.008604 7.26706,3.008604 2.63358,0 5.26457,-1.004428 7.2729,-3.013674 2.00574,-2.007685 3.00925,-4.63802 3.00925,-7.268224 m -34.389458,8.552909 c -0.09541,0.207203 -0.194464,0.412846 -0.296505,0.61641 0.08228,-0.04212 0.164436,-0.08527 0.245679,-0.12947 0.01885,-0.162486 0.03562,-0.324453 0.05083,-0.48694"
       style="fill:#3a8a3a;fill-opacity:1;fill-rule:nonzero;stroke:none;stroke-width:0.129989"
       id="path300" /><path
       d="m 119.68193,47.584172 c -3.39272,-3.392982 -8.89465,-3.392982 -12.28764,0 -3.39337,3.392852 -3.39337,8.894651 0,12.287503 3.39299,3.393502 8.89492,3.393502 12.28764,0 3.39272,-3.392852 3.39272,-8.894651 0,-12.287503"
       style="fill:#ffffff;fill-opacity:1;fill-rule:nonzero;stroke:none;stroke-width:0.129989"
       id="path542" /><path
       d="m 115.84177,87.375585 c 1.29801,-2.289999 1.7241,-5.074183 0.96721,-7.812262 -1.51259,-5.472953 -7.17484,-8.683704 -12.64773,-7.171212 -5.473277,1.512125 -11.135857,-1.69882 -12.648546,-7.172418 -0.294716,-1.066994 -0.747777,-2.047482 -1.326081,-2.924471 -0.155742,3.070771 -1.014766,6.162736 -2.641341,9.032269 l -0.0012,0.0011 c -1.627028,2.869277 -3.839656,5.193114 -6.394901,6.90284 l -0.0021,0.0017 c 1.050359,0.04619 2.125406,-0.06835 3.192997,-0.363325 5.473341,-1.512236 11.135858,1.69882 12.648351,7.17171 1.512123,5.473277 7.174591,8.684157 12.647981,7.172097 2.73676,-0.756143 4.90703,-2.549962 6.2054,-4.837963 v 0"
       style="opacity:0.8;fill:#429b42;fill-opacity:1;fill-rule:nonzero;stroke:none;stroke-width:0.129989"
       id="path298-8" /><path
       d="m 115.84177,87.375585 -1.42788,-0.810277 c -1.09979,1.914346 -2.92478,3.413125 -5.22148,4.046979 -2.31265,0.638255 -4.66576,0.278471 -6.60012,-0.81922 -1.93346,-1.097178 -3.448526,-2.932457 -4.086717,-5.245221 -0.0013,-0.0048 -0.0026,-0.0096 -0.004,-0.01453 -0.0013,-0.0048 -0.0027,-0.0096 -0.004,-0.01453 -0.0016,-0.0043 -0.003,-0.0094 -0.0043,-0.01408 -0.0013,-0.0048 -0.0027,-0.0097 -0.0035,-0.01427 -0.0018,-0.0051 -0.0027,-0.0097 -0.004,-0.01453 -0.0013,-0.0048 -0.0027,-0.0097 -0.004,-0.01453 -0.0013,-0.0048 -0.0027,-0.0097 -0.0043,-0.01408 -0.0013,-0.0049 -0.0025,-0.01014 -0.004,-0.01453 -0.0013,-0.0049 -0.0027,-0.0097 -0.004,-0.01453 -0.0014,-0.0049 -0.0027,-0.0097 -0.0035,-0.01427 -0.0026,-0.0079 -0.0044,-0.01595 -0.007,-0.02383 -1.35e-4,-0.0018 -9.77e-4,-0.0035 -0.0011,-0.0052 -0.0014,-0.0049 -0.003,-0.0092 -0.0043,-0.01408 -0.0014,-0.0049 -0.0027,-0.0097 -0.004,-0.01453 -0.0014,-0.0049 -0.0022,-0.0095 -0.0036,-0.01445 -0.0013,-0.0048 -0.0026,-0.0096 -0.004,-0.01453 -0.0013,-0.0048 -0.0026,-0.0096 -0.004,-0.01453 -0.0013,-0.0048 -0.0026,-0.0096 -0.004,-0.01453 -0.0016,-0.0043 -0.0029,-0.0091 -0.0043,-0.01408 -8.68e-4,-0.0046 -0.0022,-0.0094 -0.0035,-0.01427 -0.0013,-0.0048 -0.0026,-0.0096 -0.004,-0.01453 -0.0013,-0.0048 -0.0027,-0.0096 -0.004,-0.01453 -0.0013,-0.0048 -0.0027,-0.0097 -0.004,-0.01453 -0.0016,-0.0043 -0.003,-0.0094 -0.0043,-0.01408 -8.69e-4,-0.0045 -0.0027,-0.0097 -0.0035,-0.01427 -0.0013,-0.0048 -0.0027,-0.0097 -0.004,-0.01453 -0.0013,-0.0048 -0.0027,-0.0097 -0.004,-0.01453 -0.0013,-0.0048 -0.0027,-0.0097 -0.0043,-0.01408 -0.0013,-0.0049 -0.0027,-0.0097 -0.004,-0.01453 -0.0014,-0.0049 -0.0027,-0.0097 -0.0035,-0.01427 -0.0014,-0.0049 -0.0027,-0.0097 -0.004,-0.01453 -0.0014,-0.0049 -0.0027,-0.0097 -0.004,-0.01453 -0.0014,-0.0049 -0.003,-0.0092 -0.0043,-0.01408 -0.0014,-0.0049 -0.0027,-0.0097 -0.004,-0.01453 -0.0014,-0.0049 -0.0022,-0.0095 -0.0036,-0.01445 -0.0013,-0.0048 -0.0026,-0.0096 -0.004,-0.01453 -0.0013,-0.0048 -0.0026,-0.0096 -0.004,-0.01453 -0.0013,-0.0048 -0.0026,-0.0096 -0.004,-0.01453 -0.0016,-0.0043 -0.0029,-0.0091 -0.0043,-0.01408 -8.69e-4,-0.0045 -0.0022,-0.0094 -0.0035,-0.01427 -0.0013,-0.0048 -0.0026,-0.0096 -0.004,-0.01453 -0.0013,-0.0048 -0.0027,-0.0096 -0.004,-0.01453 -0.0013,-0.0048 -0.0027,-0.0097 -0.004,-0.01453 -0.0016,-0.0043 -0.003,-0.0092 -0.0038,-0.01382 -0.0018,-0.0051 -0.0031,-0.01001 -0.004,-0.01453 -0.0013,-0.0048 -0.0027,-0.0097 -0.004,-0.01453 -0.0013,-0.0048 -0.0027,-0.0097 -0.004,-0.01453 -0.0013,-0.0048 -0.0027,-0.0097 -0.0043,-0.01408 -0.0013,-0.0049 -0.0027,-0.0097 -0.004,-0.01453 -0.0014,-0.0049 -0.0027,-0.0097 -0.0035,-0.01427 -0.0014,-0.0049 -0.0027,-0.0097 -0.004,-0.01453 -0.0014,-0.0049 -0.0027,-0.0097 -0.004,-0.01453 -0.0014,-0.0049 -0.003,-0.0092 -0.0043,-0.01408 -0.0014,-0.0049 -0.0027,-0.0097 -0.004,-0.01453 -1.36e-4,-0.0018 -5.27e-4,-0.0032 -0.0011,-0.0055 -0.0021,-0.0077 -0.0044,-0.01595 -0.0065,-0.02357 -0.0013,-0.0048 -0.0026,-0.0096 -0.004,-0.01453 -0.0013,-0.0048 -0.0026,-0.0096 -0.004,-0.01453 -0.0016,-0.0043 -0.0029,-0.0091 -0.0043,-0.01408 -0.0013,-0.0048 -0.0026,-0.0096 -0.004,-0.01453 -8.69e-4,-0.0045 -0.0022,-0.0094 -0.0035,-0.01427 -0.0013,-0.0048 -0.0027,-0.0096 -0.004,-0.01453 -0.0026,-0.0079 -0.0044,-0.01595 -0.007,-0.02383 -8.6e-5,-0.0017 -4.77e-4,-0.0031 -0.0011,-0.0052 -0.0016,-0.0043 -0.003,-0.0092 -0.0038,-0.01382 -0.0013,-0.0048 -0.0027,-0.0097 -0.004,-0.01453 -0.0013,-0.0048 -0.0027,-0.0098 -0.004,-0.01453 -0.0013,-0.0048 -0.0027,-0.0098 -0.004,-0.01453 -0.0013,-0.0048 -0.0027,-0.0097 -0.0043,-0.01408 -0.0014,-0.0049 -0.0027,-0.0097 -0.0035,-0.01427 -0.0014,-0.0049 -0.0027,-0.0097 -0.004,-0.01453 -0.0014,-0.0049 -0.0027,-0.0097 -0.004,-0.01453 -0.0014,-0.0049 -0.0027,-0.0097 -0.004,-0.01453 -0.0014,-0.0049 -0.003,-0.0092 -0.0043,-0.01408 -0.0014,-0.0049 -0.0027,-0.0097 -0.0039,-0.01465 -0.0014,-0.0048 -0.0023,-0.0094 -0.0036,-0.01434 -0.0013,-0.0048 -0.0026,-0.0096 -0.004,-0.01453 -0.0013,-0.0048 -0.0026,-0.0096 -0.004,-0.01453 -0.0016,-0.0043 -0.0029,-0.0091 -0.0043,-0.01408 -0.0013,-0.0048 -0.0026,-0.0096 -0.004,-0.01453 -8.68e-4,-0.0046 -0.0022,-0.0094 -0.0035,-0.01427 -0.0013,-0.0048 -0.0027,-0.0096 -0.004,-0.01453 -0.0013,-0.0048 -0.0027,-0.0097 -0.004,-0.01453 -0.0016,-0.0043 -0.003,-0.0092 -0.004,-0.01453 -0.0016,-0.0043 -0.003,-0.0092 -0.0038,-0.01382 -0.0013,-0.0048 -0.0027,-0.0097 -0.004,-0.01453 -0.0013,-0.0048 -0.0027,-0.0097 -0.004,-0.01453 -0.0013,-0.0048 -0.0027,-0.0097 -0.004,-0.01453 -0.0013,-0.0048 -0.0027,-0.0097 -0.0043,-0.01408 -0.0014,-0.0049 -0.0027,-0.0097 -0.0035,-0.01427 -0.0018,-0.0052 -0.0027,-0.0097 -0.004,-0.01453 -0.0014,-0.0049 -0.0027,-0.0097 -0.004,-0.01453 -0.0014,-0.0049 -0.0027,-0.0097 -0.004,-0.01453 -0.0014,-0.0049 -0.003,-0.0092 -0.0043,-0.01408 -0.0014,-0.0049 -0.0027,-0.0097 -0.0039,-0.01465 -0.0014,-0.0048 -0.0023,-0.0094 -0.0036,-0.01434 -0.0013,-0.0048 -0.0026,-0.0096 -0.004,-0.01453 -0.0013,-0.0048 -0.0026,-0.0096 -0.004,-0.01453 -0.0016,-0.0043 -0.0029,-0.0091 -0.0043,-0.01408 -0.0013,-0.0048 -0.0026,-0.0096 -0.004,-0.01453 -8.68e-4,-0.0045 -0.0022,-0.0094 -0.0035,-0.01427 -0.0013,-0.0048 -0.0027,-0.0096 -0.004,-0.01453 -0.0013,-0.0048 -0.0027,-0.0097 -0.004,-0.01453 -0.0016,-0.0043 -0.0027,-0.0097 -0.004,-0.01453 -0.0016,-0.0043 -0.003,-0.0092 -0.0038,-0.01382 -0.0013,-0.0048 -0.0027,-0.0098 -0.004,-0.01453 -0.0013,-0.0048 -0.0027,-0.0097 -0.004,-0.01453 -0.0013,-0.0048 -0.0027,-0.0097 -0.004,-0.01453 -0.0013,-0.0048 -0.0027,-0.0097 -0.0043,-0.01408 -0.0014,-0.0049 -0.0027,-0.0097 -0.0035,-0.01427 -0.0018,-0.0052 -0.0031,-0.01001 -0.004,-0.01453 -0.0014,-0.0049 -0.0027,-0.0097 -0.004,-0.01453 -8.44e-4,-0.0017 -9.78e-4,-0.0035 -0.0014,-0.0049 -0.0026,-0.0079 -0.0044,-0.01595 -0.0069,-0.02365 -0.0014,-0.0049 -0.0027,-0.0097 -0.0039,-0.01465 -0.001,-0.0034 -0.0018,-0.0073 -0.0031,-0.01105 -0.03312,-0.105187 -0.06432,-0.211667 -0.09448,-0.319199 -0.0065,-0.02357 -0.01235,-0.04798 -0.01863,-0.072 -0.007,-0.02371 -0.01423,-0.04708 -0.02082,-0.0713 -0.0062,-0.02402 -0.01261,-0.04793 -0.01881,-0.07195 -0.0069,-0.02376 -0.01425,-0.04785 -0.02076,-0.07142 -0.0068,-0.02416 -0.01235,-0.04838 -0.01915,-0.07214 -0.0064,-0.0239 -0.01397,-0.04754 -0.02056,-0.07175 -0.0065,-0.02357 -0.01261,-0.04793 -0.01881,-0.07195 -0.007,-0.02383 -0.0138,-0.04759 -0.02076,-0.07142 -0.0016,-0.0055 -0.0027,-0.01144 -0.0044,-0.017 -0.0013,-0.0049 -0.003,-0.0099 -0.0044,-0.01479 -0.0051,-0.01872 -0.0096,-0.03758 -0.01468,-0.05631 -0.0055,-0.01822 -0.01053,-0.03694 -0.01608,-0.05515 -0.0016,-0.0055 -0.0023,-0.01014 -0.0042,-0.01524 -0.0013,-0.006 -0.003,-0.01105 -0.0043,-0.01704 -0.007,-0.02383 -0.01301,-0.04819 -0.01951,-0.07175 -0.0066,-0.02422 -0.01379,-0.04759 -0.02056,-0.07175 -0.240684,-0.872226 -0.33895,-1.749424 -0.309372,-2.609076 0.02085,-0.674645 0.12076,-1.338496 0.293122,-1.978573 l -7.141266,-4.050113 v 0 L 87.54406,71.32859 c -1.419038,2.502754 -3.283819,4.590248 -5.432715,6.217595 0.0082,0.22641 0.0079,0.453958 5.89e-4,0.682174 0.739108,-0.03718 1.485925,-0.154585 2.229125,-0.360428 2.737629,-0.756096 5.523358,-0.330615 7.812264,0.968267 2.287548,1.298111 4.079867,3.468135 4.83583,6.203895 0.755767,2.735052 2.548473,4.905445 4.835457,6.203236 2.29049,1.299779 5.07444,1.724703 7.81278,0.968409 2.73531,-0.756218 4.90627,-2.548603 6.20438,-4.836153 M 81.711259,77.841663 c -0.185246,0.133119 -0.372887,0.263086 -0.5621,0.389767 0.09234,0.004 0.185099,0.007 0.277571,0.0087 0.09658,-0.132016 0.191108,-0.264607 0.284529,-0.398419"
       style="fill:#429b42;fill-opacity:1;fill-rule:nonzero;stroke:none;stroke-width:0.129989"
       id="path300-3" /><path
       d="m 115.23523,79.96355 c -1.27615,-4.625399 -6.06131,-7.340823 -10.68684,-6.064442 -4.625798,1.276077 -7.341157,6.061117 -6.064373,10.686724 1.276125,4.62598 6.061283,7.341404 10.686833,6.064442 4.62524,-1.276397 7.3406,-6.061438 6.06438,-10.686724"
       style="fill:#ffffff;fill-opacity:1;fill-rule:nonzero;stroke:none;stroke-width:0.129989"
       id="path542-7" /><path
       d="m 115.63808,19.266833 c -1.32919,-2.272047 -3.52343,-4.037993 -6.27154,-4.757617 -5.49284,-1.438663 -11.111824,1.847211 -12.550543,7.339955 -1.439231,5.492895 -7.058551,8.778962 -12.552007,7.340056 -1.070785,-0.28063 -2.146224,-0.380886 -3.195005,-0.32087 2.577801,1.675958 4.820947,3.970835 6.486466,6.817941 l 3.46e-4,0.0017 c 1.66507,2.84737 2.564459,5.927474 2.760729,8.995685 l 4.28e-4,0.0027 c 0.567133,-0.885294 1.007648,-1.872609 1.288352,-2.944041 1.439168,-5.493006 7.058552,-8.778962 12.551294,-7.340244 5.49289,1.439233 11.1121,-1.846769 12.55145,-7.339735 0.7196,-2.746589 0.25737,-5.52403 -1.06989,-7.795391 v 0"
       style="opacity:0.8;fill:#337833;fill-opacity:1;fill-rule:nonzero;stroke:none;stroke-width:0.129989"
       id="path298-8-0" /><path
       d="m 115.63808,19.266833 -1.41751,0.828318 c 1.10376,1.91206 1.48411,4.242777 0.8796,6.547378 -0.6087,2.320606 -2.10094,4.175274 -4.02123,5.297396 -1.91939,1.1216 -4.26719,1.510865 -6.58786,0.902045 -0.004,-0.0014 -0.01,-0.0025 -0.0146,-0.0039 -0.004,-0.0014 -0.01,-0.0024 -0.0146,-0.0039 -0.004,-8.09e-4 -0.01,-0.0021 -0.0144,-0.0034 -0.004,-0.0014 -0.01,-0.0025 -0.0141,-0.0041 -0.005,-9.51e-4 -0.01,-0.0025 -0.0146,-0.0039 -0.004,-0.0014 -0.01,-0.0025 -0.0146,-0.0039 -0.004,-0.0014 -0.01,-0.0025 -0.0144,-0.0034 -0.006,-0.0013 -0.01,-0.003 -0.0146,-0.0039 -0.006,-0.0013 -0.01,-0.0025 -0.0146,-0.0039 -0.006,-0.0012 -0.01,-0.0025 -0.0141,-0.0041 -0.008,-0.0017 -0.016,-0.0041 -0.0241,-0.0059 -10e-4,-8.28e-4 -0.004,-8.1e-4 -0.006,-0.0016 -0.006,-0.0012 -0.01,-0.002 -0.0144,-0.0034 -0.006,-0.0012 -0.01,-0.0025 -0.0146,-0.0039 -0.006,-0.0012 -0.01,-0.0028 -0.0143,-0.0042 -0.004,-0.0014 -0.01,-0.0025 -0.0146,-0.0039 -0.004,-0.0014 -0.01,-0.0025 -0.0146,-0.0039 -0.004,-0.0014 -0.01,-0.0025 -0.0146,-0.0039 -0.004,-8.09e-4 -0.01,-0.002 -0.0144,-0.0034 -0.004,-0.0016 -0.01,-0.0027 -0.0141,-0.0041 -0.004,-0.0014 -0.01,-0.0025 -0.0146,-0.0039 -0.004,-0.0014 -0.01,-0.0024 -0.0146,-0.0039 -0.004,-0.0014 -0.01,-0.0025 -0.0146,-0.0039 -0.004,-8.09e-4 -0.01,-0.0021 -0.0144,-0.0034 -0.004,-0.0016 -0.01,-0.0025 -0.0141,-0.0041 -0.004,-0.0014 -0.01,-0.0025 -0.0146,-0.0039 -0.004,-0.0014 -0.01,-0.0025 -0.0146,-0.0039 -0.004,-0.0014 -0.01,-0.0025 -0.0144,-0.0034 -0.006,-0.0013 -0.01,-0.0025 -0.0146,-0.0039 -0.006,-0.0012 -0.01,-0.0025 -0.0141,-0.0041 -0.006,-0.0012 -0.01,-0.0025 -0.0146,-0.0039 -0.006,-0.0012 -0.01,-0.0025 -0.0146,-0.0039 -0.006,-0.0012 -0.01,-0.002 -0.0144,-0.0034 -0.006,-0.0012 -0.01,-0.0025 -0.0146,-0.0039 -0.006,-0.0012 -0.01,-0.0028 -0.0143,-0.0042 -0.004,-0.0014 -0.01,-0.0025 -0.0146,-0.0039 -0.004,-0.0014 -0.01,-0.0025 -0.0146,-0.0039 -0.004,-0.0014 -0.01,-0.0025 -0.0146,-0.0039 -0.004,-8.09e-4 -0.01,-0.002 -0.0144,-0.0034 -0.004,-0.0016 -0.01,-0.0027 -0.0141,-0.0041 -0.004,-0.0014 -0.01,-0.0025 -0.0146,-0.0039 -0.004,-0.0014 -0.01,-0.0024 -0.0146,-0.0039 -0.004,-0.0014 -0.01,-0.0025 -0.0146,-0.0039 -0.004,-8.09e-4 -0.01,-0.002 -0.0139,-0.0037 -0.005,-9.51e-4 -0.01,-0.0024 -0.0146,-0.0039 -0.004,-0.0014 -0.01,-0.0025 -0.0146,-0.0039 -0.004,-0.0014 -0.01,-0.0025 -0.0146,-0.0039 -0.004,-0.0014 -0.01,-0.0025 -0.0144,-0.0034 -0.006,-0.0013 -0.01,-0.0025 -0.0146,-0.0039 -0.006,-0.0012 -0.01,-0.0025 -0.0141,-0.0041 -0.006,-0.0012 -0.01,-0.0025 -0.0146,-0.0039 -0.006,-0.0012 -0.01,-0.0025 -0.0146,-0.0039 -0.006,-0.0012 -0.01,-0.002 -0.0144,-0.0034 -0.006,-0.0012 -0.01,-0.0025 -0.0146,-0.0039 -0.001,-8.28e-4 -0.003,-0.0012 -0.006,-0.0017 -0.008,-0.0019 -0.016,-0.0041 -0.0237,-0.0062 -0.004,-0.0014 -0.01,-0.0025 -0.0146,-0.0039 -0.004,-0.0014 -0.01,-0.0025 -0.0146,-0.0039 -0.004,-8.09e-4 -0.01,-0.002 -0.0144,-0.0034 -0.004,-0.0014 -0.01,-0.0025 -0.0146,-0.0039 -0.004,-0.0016 -0.01,-0.0027 -0.0141,-0.0041 -0.004,-0.0014 -0.01,-0.0024 -0.0146,-0.0039 -0.008,-0.0017 -0.016,-0.0041 -0.0241,-0.0059 -0.001,-7.8e-4 -0.003,-0.0012 -0.006,-0.0016 -0.004,-8.09e-4 -0.01,-0.002 -0.0139,-0.0037 -0.004,-0.0014 -0.01,-0.0025 -0.0146,-0.0039 -0.004,-0.0014 -0.01,-0.0025 -0.0146,-0.0039 -0.004,-0.0014 -0.01,-0.0025 -0.0146,-0.0039 -0.004,-0.0014 -0.01,-0.0025 -0.0144,-0.0034 -0.006,-0.0012 -0.01,-0.0025 -0.0141,-0.0041 -0.006,-0.0012 -0.01,-0.0025 -0.0146,-0.0039 -0.006,-0.0012 -0.01,-0.0025 -0.0146,-0.0039 -0.006,-0.0012 -0.01,-0.0025 -0.0146,-0.0039 -0.006,-0.0012 -0.01,-0.002 -0.0144,-0.0034 -0.006,-0.0012 -0.01,-0.0025 -0.0146,-0.004 -0.005,-0.0011 -0.01,-0.0025 -0.0143,-0.0041 -0.004,-0.0014 -0.01,-0.0025 -0.0146,-0.0039 -0.004,-0.0014 -0.01,-0.0025 -0.0146,-0.0039 -0.004,-8.09e-4 -0.01,-0.002 -0.0144,-0.0034 -0.004,-0.0014 -0.01,-0.0025 -0.0146,-0.0039 -0.004,-0.0016 -0.01,-0.0027 -0.0141,-0.0041 -0.004,-0.0014 -0.01,-0.0024 -0.0146,-0.0039 -0.004,-0.0014 -0.01,-0.0025 -0.0146,-0.0039 -0.004,-8.09e-4 -0.01,-0.002 -0.0146,-0.0039 -0.004,-8.09e-4 -0.01,-0.002 -0.0139,-0.0037 -0.004,-0.0014 -0.01,-0.0025 -0.0146,-0.0039 -0.004,-0.0014 -0.01,-0.0025 -0.0146,-0.0039 -0.004,-0.0014 -0.01,-0.0025 -0.0146,-0.0039 -0.004,-0.0014 -0.01,-0.0025 -0.0143,-0.0034 -0.006,-0.0012 -0.01,-0.0025 -0.0141,-0.0041 -0.005,-0.0011 -0.01,-0.0025 -0.0146,-0.0039 -0.006,-0.0012 -0.01,-0.0025 -0.0146,-0.0039 -0.006,-0.0012 -0.01,-0.0025 -0.0146,-0.0039 -0.006,-0.0012 -0.01,-0.002 -0.0143,-0.0034 -0.006,-0.0012 -0.01,-0.0025 -0.0146,-0.004 -0.006,-0.0011 -0.01,-0.0025 -0.0143,-0.0041 -0.004,-0.0014 -0.01,-0.0025 -0.0146,-0.0039 -0.004,-0.0014 -0.01,-0.0025 -0.0146,-0.0039 -0.004,-8.09e-4 -0.01,-0.002 -0.0144,-0.0034 -0.004,-0.0014 -0.01,-0.0025 -0.0146,-0.0039 -0.004,-0.0016 -0.01,-0.0027 -0.0141,-0.0041 -0.004,-0.0014 -0.01,-0.0024 -0.0146,-0.0039 -0.004,-0.0014 -0.01,-0.0025 -0.0146,-0.0039 -0.004,-8.1e-4 -0.01,-0.0025 -0.0146,-0.0039 -0.004,-8.09e-4 -0.01,-0.002 -0.0139,-0.0037 -0.004,-0.0014 -0.01,-0.0025 -0.0146,-0.0039 -0.004,-0.0014 -0.01,-0.0025 -0.0146,-0.0039 -0.004,-0.0014 -0.01,-0.0025 -0.0146,-0.0039 -0.004,-0.0014 -0.01,-0.0025 -0.0144,-0.0034 -0.006,-0.0012 -0.01,-0.0025 -0.0141,-0.0041 -0.005,-0.0011 -0.01,-0.0024 -0.0146,-0.0039 -0.006,-0.0012 -0.01,-0.0025 -0.0146,-0.0039 -0.001,-2.17e-4 -0.004,-8.09e-4 -0.006,-0.0012 -0.008,-0.0017 -0.016,-0.0041 -0.0239,-0.0059 -0.006,-0.0012 -0.01,-0.0025 -0.0146,-0.004 -0.003,-9.23e-4 -0.007,-0.0021 -0.0111,-0.0028 -0.10761,-0.02415 -0.21536,-0.05061 -0.3235,-0.07849 -0.0237,-0.0062 -0.0477,-0.01341 -0.0717,-0.02003 -0.024,-0.0058 -0.0479,-0.01131 -0.0721,-0.01777 -0.0239,-0.0066 -0.0479,-0.01313 -0.0716,-0.01985 -0.024,-0.0059 -0.0485,-0.0117 -0.0722,-0.01789 -0.0243,-0.0063 -0.0481,-0.0136 -0.072,-0.01965 -0.0238,-0.0065 -0.0481,-0.01177 -0.0724,-0.01823 -0.0237,-0.0062 -0.0477,-0.01316 -0.0716,-0.01985 -0.0241,-0.0059 -0.0482,-0.01194 -0.0722,-0.01789 -0.006,-0.0013 -0.0112,-0.0034 -0.0169,-0.0047 -0.006,-0.0013 -0.01,-0.0024 -0.015,-0.0037 -0.0188,-0.005 -0.0373,-0.01055 -0.0561,-0.01557 -0.0186,-0.0044 -0.0372,-0.0094 -0.0558,-0.01378 -0.006,-0.0013 -0.01,-0.003 -0.0153,-0.004 -0.006,-0.002 -0.0111,-0.0029 -0.0169,-0.0049 -0.0241,-0.0059 -0.0482,-0.01293 -0.0719,-0.01914 -0.0242,-0.0064 -0.048,-0.01196 -0.0724,-0.01823 -0.87522,-0.229605 -1.683244,-0.584888 -2.411923,-1.04194 -0.573047,-0.356647 -1.09708,-0.776255 -1.564184,-1.246595 l -7.087301,4.143824 v 0 l -2.978907,1.741933 c 1.45245,2.483512 2.32201,5.144133 2.650979,7.819539 0.199939,0.106554 0.396618,0.220988 0.590322,0.341881 0.338811,-0.657929 0.612099,-1.362794 0.80708,-2.108917 0.720084,-2.747321 2.486279,-4.943198 4.758534,-6.270995 2.270908,-1.327008 5.04739,-1.788062 7.79302,-1.068799 2.74493,0.719074 5.52193,0.257867 7.79228,-1.068812 2.27382,-1.328716 4.03864,-3.523328 4.75891,-6.271365 0.71882,-2.74538 0.25817,-5.522698 -1.06884,-7.793607 M 90.261524,44.001792 c 0.02216,0.227036 0.0404,0.454563 0.05499,0.681801 0.04983,-0.07784 0.09897,-0.156572 0.146848,-0.235705 -0.0657,-0.149797 -0.132946,-0.298102 -0.201794,-0.446065"
       style="fill:#337833;fill-opacity:1;fill-rule:nonzero;stroke:none;stroke-width:0.129989"
       id="path300-3-2" /><path
       d="m 108.92282,16.071265 c -4.64109,-1.217778 -9.391439,1.558095 -10.609075,6.199432 -1.218041,4.641423 1.557764,9.391656 6.199375,10.608984 4.6416,1.218079 9.39193,-1.557781 10.60908,-6.199444 1.21749,-4.641089 -1.55832,-9.391321 -6.19938,-10.608972"
       style="fill:#ffffff;fill-opacity:1;fill-rule:nonzero;stroke:none;stroke-width:0.129989"
       id="path542-7-4" /><path
       d="m 81.711259,29.65786 c 6.165914,6.165265 9.979282,14.683207 9.979282,24.091706 0,9.40837 -3.813368,17.926312 -9.979282,24.092097 L 57.619552,53.749566 81.711259,29.65786"
       style="fill:#ffffff;fill-opacity:1;fill-rule:nonzero;stroke:none;stroke-width:0.129989"
       id="path722" /><g
       id="g68476"
       style="fill:#337833;fill-opacity:1;stroke:#337833"
       transform="matrix(1.2998935,0,0,1.2998935,-17.329447,-25.129661)"><path
         d="m 67.5641,50.775 6.6043,-6.6039 c 1.4097,1.4117 2.6621,3.0273 3.707,4.8375 l -8.0871,4.6691 c -0.627,-1.0859 -1.3781,-2.0554 -2.2242,-2.9027"
         style="fill:#337833;fill-opacity:1;fill-rule:nonzero;stroke:#337833;stroke-width:0.1"
         id="path724" /><path
         d="m 69.7883,53.6777 v 0 l 8.0871,-4.6691 v 0 c 1.0449,1.8102 1.8184,3.7023 2.3359,5.6297 l -9.0215,2.4172 c -0.3105,-1.1563 -0.7746,-2.2914 -1.4015,-3.3778"
         style="fill:#337833;fill-opacity:1;fill-rule:nonzero;stroke:#337833;stroke-width:0.1"
         id="path726" /></g><g
       id="g25757"
       style="fill:#429b42;fill-opacity:1;stroke:#429b42"
       transform="matrix(1.2998935,0,0,1.2998935,-17.329447,-25.129661)"><path
         d="m 67.5641,70.5879 c 0.8765,-0.8758 1.6214,-1.8527 2.2257,-2.902 l 8.0883,4.67 c -1.007,1.748 -2.2488,3.3769 -3.7097,4.8359 l -6.6043,-6.6039"
         style="fill:#429b42;fill-opacity:1;fill-rule:nonzero;stroke:#429b42;stroke-width:0.1"
         id="path728" /><path
         d="m 71.1875,64.3066 9.0199,2.4168 c -0.5261,1.9637 -1.3078,3.859 -2.3293,5.6325 l -8.0883,-4.67 c 0.6129,-1.064 1.0821,-2.2007 1.3977,-3.3793"
         style="fill:#429b42;fill-opacity:1;fill-rule:nonzero;stroke:#429b42;stroke-width:0.1"
         id="path730" /></g><g
       id="g68472"
       style="fill:#3a8a3a;fill-opacity:1;stroke:#3a8a3a"
       transform="matrix(1.2998935,0,0,1.2998935,-17.329447,-25.129661)"><path
         d="m 71.1898,57.0555 9.0215,-2.4172 c 0.536,1.9937 0.7969,4.0254 0.795,6.043 h -9.3395 c 0.0012,-1.2106 -0.1555,-2.4293 -0.477,-3.6258"
         style="fill:#3a8a3a;fill-opacity:1;fill-rule:nonzero;stroke:#3a8a3a;stroke-width:0.1"
         id="path732" /><path
         d="m 71.6668,60.6813 h 9.3395 c -0.002,2.0464 -0.2723,4.0785 -0.7989,6.0421 l -9.0199,-2.4168 c 0.3156,-1.1781 0.4781,-2.3972 0.4793,-3.6253"
         style="fill:#3a8a3a;fill-opacity:1;fill-rule:nonzero;stroke:#3a8a3a;stroke-width:0.1"
         id="path734" /></g><path
       d="m 72.792819,80.030683 v 0 c -2.353067,1.358259 -4.812725,2.363727 -7.31749,3.036551 -2.592248,0.696613 -5.233111,1.035236 -7.855777,1.033286 V 71.960164 c 1.573652,0.0016 3.157832,-0.202003 4.713154,-0.619919 1.502937,-0.403747 2.979096,-1.006897 4.390651,-1.82193 v 0 c 1.411684,-0.815424 2.671931,-1.791384 3.77333,-2.891224 l 8.584887,8.584367 c -1.83558,1.83311 -3.935817,3.460447 -6.288755,4.819225"
       style="fill:#e2e2e2;fill-opacity:1;fill-rule:nonzero;stroke:none;stroke-width:0.129989"
       id="path736" /><path
       d="m 91.958579,1.2003318 c -1.573521,-0.00156 -3.158351,0.2020034 -4.713674,0.6193992 -1.502417,0.4042669 -2.978576,1.0074175 -4.39013,1.8224507 v 0 C 81.442701,4.457085 80.182324,5.433565 79.081574,6.5334049 l -8.584887,-8.5848867 c 1.83506,-1.8329798 3.935688,-3.4599265 6.288755,-4.8187052 v 0 c 2.352937,-1.3582587 4.812596,-2.3637263 7.317491,-3.0370712 2.592117,-0.6960928 5.232981,-1.0352348 7.855646,-1.0327658 V 1.2003318"
       style="fill:#e2e2e2;fill-opacity:1;fill-rule:nonzero;stroke:none;stroke-width:0.129989"
       id="path738" /><path
       d="m 33.216652,71.960164 h 24.4029 V 84.10052 h -24.4029 V 71.960164"
       style="fill:#e2e2e2;fill-opacity:1;fill-rule:nonzero;stroke:none;stroke-width:0.129989"
       id="path740" /><path
       d="M 91.958579,-10.940024 H 116.362 V 1.2003318 H 91.958579 V -10.940024"
       style="fill:#e2e2e2;fill-opacity:1;fill-rule:nonzero;stroke:none;stroke-width:0.129989"
       id="path742" /><path
       d="M 116.25541,6.3703982 V -15.733355 l 11.05169,11.0521887 z"
       style="fill:#e2e2e2;fill-opacity:1;fill-rule:nonzero;stroke:none;stroke-width:0.129989"
       id="path744" /><g
       id="g1532"
       transform="matrix(0.02695881,0,0,-0.02695881,29.1381,26.290228)"><path
         d="m 93.635,137.1 c 17.225,-24.6 19.084,-43.291 15.212,-46 a 3.43,3.43 0 0 0 -1.972,-0.491 c -2.489,0 -6.6,1.473 -11.909,5.157 -8.026,5.574 -16.6,14.579 -24.149,25.356 -17.225,24.6 -19.085,43.291 -15.212,46 1.775,1.243 6.755,0.282 13.88,-4.666 8.026,-5.579 16.603,-14.583 24.15,-25.356 z"
         id="path1479" /><polygon
         points="169.63,99.865 226.932,122.169 284.232,99.865 226.932,78.799 "
         id="polygon1481" /><path
         d="m 120.234,101.441 a 53.478,53.478 0 0 1 -1.359,6.844 c -2.788,10.56 -8.842,22.829 -17.049,34.547 -8.207,11.718 -17.666,21.6 -26.637,27.833 a 51.749,51.749 0 0 1 -6.989,4.141 q 5.108,3.09 10.292,6.264 a 97.85,97.85 0 0 1 17.1,-15.679 c 13.259,-9.208 21.089,-7.607 25.321,-4.644 l 1.938,1.42 a 1382.272,1382.272 0 0 0 117.088,98.483 c 3.343,-4 7.539,-9.293 11.979,-15.792 l 1.648,-2.409 c 8.121,-11.872 10.205,-14.921 13.621,-23 q -3.57,-2.488 -7.112,-4.988 A 101.408,101.408 0 0 1 129.117,117.544 q 0,-3.9 0.292,-7.729 -4.593,-4.157 -9.175,-8.374 z"
         id="path1483" /><path
         d="M 139.117,117.545 A 91.331,91.331 0 1 0 139.73,107 a 4.984,4.984 0 0 1 -0.292,2.93 c -0.209,2.509 -0.321,5.049 -0.321,7.615 z m 14.661,-22.517 71.429,-26.269 a 5,5 0 0 1 3.45,-0.019 l 71.427,26.221 a 4.9,4.9 0 0 1 3.275,4.568 l -0.359,14.1 4.838,12.039 A 29.959,29.959 0 0 1 310,137.054 v 16.884 c 0,2.762 -1.739,5.062 -4.5,5.062 h -14.6 a 4.971,4.971 0 0 1 -4.9,-5.062 v -16.661 a 29.8,29.8 0 0 1 2.2,-11.862 l 4.8,-11.75 v -6.622 l -13,5.125 v 40.763 a 4.877,4.877 0 0 1 -3.116,4.685 142.412,142.412 0 0 1 -49.87,9.015 142.718,142.718 0 0 1 -49.926,-9.015 4.854,4.854 0 0 1 -3.088,-4.685 v -40.763 l -20.145,-7.777 a 5.086,5.086 0 0 1 -3.269,-4.712 4.933,4.933 0 0 1 3.192,-4.651 z"
         id="path1485" /><path
         d="m 227.014,132.535 a 4.57,4.57 0 0 1 -1.73,-0.341 L 184,116.06 v 19.022 a 131.646,131.646 0 0 0 86,0 V 116.06 l -41.311,16.134 a 4.3,4.3 0 0 1 -1.675,0.341 z"
         id="path1487" /><path
         d="m 300,137.054 a 19.856,19.856 0 0 0 -1.23,-7.613 l -0.48,-1.818 -0.714,1.725 A 20,20 0 0 0 296,137.277 V 149 h 4 z"
         id="path1489" /><path
         d="m 428.033,384.627 c 1.95,-2.532 3.814,-5.04 5.554,-7.485 a 222.481,222.481 0 0 0 16.667,-27.429 13.647,13.647 0 0 0 -5.672,-18.3 c -37.42,-20.418 -99.674,-60.1 -140.625,-87.129 -4.162,9.364 -7.643,14.441 -17.689,28.681 -1.722,2.441 -6.647,8.874 -10.243,13.572 l -0.149,0.2 q 11.024,7.732 22.176,15.238 c 30.848,20.744 86.894,57.092 129.981,82.652 z"
         id="path1491" /><path
         d="m 295.493,238.682 c -3.311,-2.2 -6.456,-4.3 -9.356,-6.253 q -5.276,-3.549 -10.564,-7.184 c -3.41,7.726 -6.094,11.652 -13.753,22.849 l -1.645,2.406 c -4.507,6.6 -8.761,12 -12.2,16.125 q 9.808,7.254 19.734,14.326 c 0.124,-0.161 0.246,-0.321 0.373,-0.488 3.347,-4.371 8.4,-10.976 10.013,-13.258 10.292,-14.587 13.272,-18.945 17.398,-28.523 z"
         id="path1493" /><path
         d="m 184,145.61 v 3.8 a 131.64,131.64 0 0 0 86,0 v -3.8 a 141.4,141.4 0 0 1 -86,0 z"
         id="path1495" /><path
         d="m 263.369,353.349 a 24.652,24.652 0 0 0 -14.241,-4.536 25.139,25.139 0 0 0 -4.265,0.367 24.829,24.829 0 1 0 18.506,4.169 z"
         id="path1497" /><path
         d="m 164.99,399.138 10.616,6.926 a 8.219,8.219 0 0 1 3.632,8.069 l -1.729,11.657 47.22,-27.512 a 34.462,34.462 0 0 1 -9.287,-16.211 z"
         id="path1499" /><path
         d="m 99.97,214.941 c 17.225,-24.595 19.084,-43.291 15.212,-46 a 3.434,3.434 0 0 0 -1.972,-0.491 c -2.489,0 -6.6,1.473 -11.908,5.157 -8.027,5.575 -16.6,14.58 -24.15,25.356 -17.225,24.6 -19.084,43.291 -15.212,46 3.872,2.709 20.805,-5.426 38.03,-30.022 z"
         id="path1501" /><path
         d="m 301.829,316.528 -19.922,-13.437 c -3.408,7.724 -6.092,11.65 -13.75,22.846 l -1.646,2.408 c -3.2,4.676 -5.934,8.3 -8.609,11.6 a 35.022,35.022 0 0 1 19.837,13.9 c 2.579,-3.317 5.412,-6.978 6.693,-8.794 10.291,-14.588 13.268,-18.946 17.397,-28.523 z"
         id="path1503" /><path
         d="m 450.917,409.264 c -37.419,-20.418 -99.673,-60.1 -140.625,-87.13 -4.161,9.364 -7.643,14.441 -17.689,28.681 -1.609,2.28 -5.215,6.913 -8.112,10.636 -0.713,0.916 -1.379,1.771 -1.961,2.522 a 35.317,35.317 0 0 1 0.851,3.674 34.439,34.439 0 0 1 -3.254,21.715 c 56.513,41.089 96.587,72.321 119.124,92.849 a 13.659,13.659 0 0 0 19.244,-0.843 286.858,286.858 0 0 0 21.427,-26.381 222.529,222.529 0 0 0 16.667,-27.429 13.645,13.645 0 0 0 -5.672,-18.294 z"
         id="path1505" /><path
         d="m 249.139,408.3 a 34.688,34.688 0 0 1 -11.878,-2.116 l -10.178,54.526 10.463,-5.494 a 8.222,8.222 0 0 1 8.814,0.764 l 10.018,7.717 -0.945,-55.972 a 35.113,35.113 0 0 1 -6.294,0.575 z"
         id="path1507" /><path
         d="m 243.163,339.326 c 0.827,-0.143 1.655,-0.245 2.483,-0.328 A 169.365,169.365 0 0 0 258.254,322.7 l 1.649,-2.412 c 8.124,-11.877 10.2,-14.923 13.624,-23.009 a 1392.787,1392.787 0 0 1 -146.958,-118 53.3,53.3 0 0 1 -1.358,6.845 c -2.788,10.56 -8.843,22.829 -17.049,34.547 C 99.956,232.389 90.5,242.28 81.525,248.51 a 51.681,51.681 0 0 1 -7,4.144 c 45.8,27.7 97.065,61.023 149.3,97.039 a 34.44,34.44 0 0 1 19.338,-10.367 z m -105.6,-73.179 a 5,5 0 0 1 -6.892,1.58 q -4.706,-2.95 -9.378,-5.854 a 5,5 0 0 1 5.277,-8.494 q 4.691,2.913 9.413,5.876 a 5,5 0 0 1 1.583,6.892 z m 81.688,53.353 a 5,5 0 0 1 -6.939,1.357 c -21.775,-14.648 -43.3,-28.767 -63.991,-41.964 a 5.0001161,5.0001161 0 1 1 5.378,-8.431 c 20.755,13.241 42.353,27.4 64.195,42.1 a 5,5 0 0 1 1.357,6.938 z"
         id="path1509" /></g><g
       id="g2552"
       transform="translate(-65.631169,24.76055)"><path
         d="m 113.08311,22.19093 v -2.892005 c 0,0 -1.7062,-1.137465 -3.98113,-1.137465 -2.27493,0 -3.98113,1.137465 -3.98113,1.137465 v 2.892005 l 3.87876,-1.491786 c 0.066,-0.02502 0.1382,-0.02502 0.20417,0 z"
         id="path2028"
         style="stroke-width:0.568732" /><path
         d="m 116.07805,24.257135 -0.72001,-0.276973 v -2.45863 c 0.33043,-0.117728 0.56873,-0.429962 0.56873,-0.800776 v -1.251211 c 0,-0.09441 -0.0762,-0.17062 -0.17062,-0.17062 h -1.36496 c -0.0944,0 -0.17062,0.07621 -0.17062,0.17062 v 1.251211 c 0,0.370814 0.2383,0.683617 0.56873,0.800776 V 23.7612 l -5.62533,-2.163458 c -0.0427,0 -0.0808,0 -0.12341,0 l -6.91465,2.659393 c -0.14674,0.0563 -0.14674,0.26446 0,0.321333 l 6.91465,2.659393 c 0.0426,0 0.0808,0 0.12341,0 l 6.91465,-2.659393 c 0.14673,-0.05687 0.14673,-0.265029 -5.7e-4,-0.321333 z"
         id="path2030"
         style="stroke-width:0.568732" /></g><path
       d="m 112.02257,24.090607 a 0.18292083,0.18292083 0 0 1 0.18292,0.18292 v 0.731684 a 0.18292083,0.18292083 0 0 1 -0.18292,0.182921 h -0.8707 a 5.1199539,5.1199539 0 0 1 -3.15356,2.396262 v 0.713392 a 0.18292083,0.18292083 0 0 1 -0.18292,0.182922 h -0.9146 v 0.695099 a 0.75985315,0.75985315 0 0 0 0.16097,-0.106094 0.84143581,0.84143581 0 0 1 1.14142,0 0.47559414,0.47559414 0 0 0 0.3439,0.142678 0.18292083,0.18292083 0 0 1 0.18292,0.182921 v 0.914604 a 0.18292083,0.18292083 0 0 1 -0.18292,0.182921 0.82497295,0.82497295 0 0 1 -0.57072,-0.223164 0.48583773,0.48583773 0 0 0 -0.68778,0 0.82497295,0.82497295 0 0 1 -0.57071,0.223164 0.18292083,0.18292083 0 0 1 -0.18292,-0.182921 v -1.829208 h -0.91461 a 0.18292083,0.18292083 0 0 1 -0.18292,-0.182922 v -0.713392 a 5.1199539,5.1199539 0 0 1 -3.15355,-2.396262 h -0.87071 a 0.18292083,0.18292083 0 0 1 -0.18292,-0.182921 v -0.731684 a 0.18292083,0.18292083 0 0 1 0.18292,-0.18292 h 0.18292 v -3.475496 h -0.18292 a 0.18292083,0.18292083 0 0 1 -0.18292,-0.182921 v -0.731683 a 0.18292083,0.18292083 0 0 1 0.18292,-0.182921 h 10.60941 a 0.18292083,0.18292083 0 0 1 0.18292,0.182921 v 0.731683 a 0.18292083,0.18292083 0 0 1 -0.18292,0.182921 h -0.18292 v 3.475496 z m -5.12178,6.001633 a 0.79881529,0.79881529 0 0 0 0.16097,-0.107923 0.84143581,0.84143581 0 0 1 1.14142,0 0.79881529,0.79881529 0 0 0 0.16097,0.107923 v -0.5323 a 0.8809467,0.8809467 0 0 1 -0.38779,-0.204871 0.48583773,0.48583773 0 0 0 -0.68778,0 0.8809467,0.8809467 0 0 1 -0.38779,0.204871 z m -1.09753,-1.977375 h 1.82921 V 27.66488 a 5.012031,5.012031 0 0 1 -1.82921,0 z m 0.91461,-0.731683 a 4.7559414,4.7559414 0 0 0 4.00779,-2.19505 h -8.01559 a 4.7559414,4.7559414 0 0 0 4.0078,2.19505 z m 5.12178,-7.499754 h -10.24357 v 0.365841 h 10.24357 z m -9.87772,0.731683 v 3.475496 h 0.73168 v -3.475496 z m 1.09752,0 v 3.475496 h 0.73168 v -3.475496 z m 1.09753,0 v 3.475496 h 0.73168 v -3.475496 z m 1.09752,0 v 3.475496 h 0.73168 v -3.475496 z m 1.09753,0 v 3.475496 h 0.73168 v -3.475496 z m 1.09752,0 v 3.475496 h 0.73168 v -3.475496 z m 1.09753,0 v 3.475496 h 0.73168 v -3.475496 z m 1.09752,0 v 3.475496 h 0.73168 v -3.475496 z m 1.09753,0 v 3.475496 h 0.73168 v -3.475496 z m -9.14605,3.841338 v 0.365841 h 10.24357 v -0.365841 z"
       id="path2121"
       style="stroke-width:0.182921" /><g
       transform="matrix(0.14366526,0,0,-0.14366526,106.3546,60.91131)"
       id="g2200"><path
         fill="#000000"
         d="m 85.625,82.749 h -71.25 c -1.036,0 -1.875,0.84 -1.875,1.875 v 5.156 h 75 v -5.156 c 0,-1.035 -0.84,-1.875 -1.875,-1.875 z"
         id="path2194" /><path
         fill="#000000"
         d="m 21.875,40.562 v 35.156 h -5.156 c -1.036,0 -1.875,0.84 -1.875,1.875 v 2.812 h 70.312 v -2.812 c 0,-1.035 -0.84,-1.875 -1.875,-1.875 H 78.125 V 40.562 H 68.75 V 75.718 H 54.688 V 40.562 H 45.313 V 75.718 H 31.25 V 40.562 Z"
         id="path2196" /><path
         fill="#000000"
         d="m 14.844,36.343 c 0,1.035 0.839,1.875 1.875,1.875 h 66.562 c 1.035,0 1.875,-0.84 1.875,-1.875 V 33.531 H 87.5 L 50,10.219 12.5,33.531 h 2.344 z"
         id="path2198" /></g><g
       id="g2543"
       transform="matrix(0.2053641,0,0,-0.2053641,100.28775,88.846258)"><g
         id="text"
         style="display:none">
</g><g
         id="guide"
         style="display:none">
</g><g
         id="stroke"
         style="display:none">
	
		<path
   style="display:inline;fill:#bcbec0;stroke:#000000;stroke-width:2;stroke-linecap:round;stroke-linejoin:round;stroke-miterlimit:10"
   d="M 19.605,23.96 25.427,18.138 15.046,7.755 c -0.999,-0.999 -2.617,-0.999 -3.616,0 L 9.223,9.962 c -0.999,0.999 -0.999,2.617 0,3.616 z"
   id="path2409" />
	
		<path
   style="display:inline;fill:#bcbec0;stroke:#000000;stroke-width:2;stroke-linecap:round;stroke-linejoin:round;stroke-miterlimit:10"
   d="M 44.395,23.96 38.573,18.138 48.954,7.755 c 0.999,-0.999 2.617,-0.999 3.616,0 l 2.206,2.206 c 0.999,0.999 0.999,2.617 0,3.616 z"
   id="path2411" />
	
		<line
   style="display:inline;fill:none;stroke:#000000;stroke-width:2;stroke-linecap:round;stroke-linejoin:round;stroke-miterlimit:10"
   x1="49.791"
   y1="12.741"
   x2="53.16"
   y2="9.3719997"
   id="line2413" />
	
		<line
   style="display:inline;fill:none;stroke:#000000;stroke-width:2;stroke-linecap:round;stroke-linejoin:round;stroke-miterlimit:10"
   x1="20.745001"
   y1="19.277"
   x2="10.84"
   y2="9.3719997"
   id="line2415" />
	
		<path
   style="display:inline;fill:#bcbec0;stroke:#000000;stroke-width:2;stroke-linecap:round;stroke-linejoin:round;stroke-miterlimit:10"
   d="M 18.741,56.134 H 8.71 c -1.281,0 -2.32,-1.039 -2.32,-2.32 v -2.749 c 0,-1.281 1.039,-2.32 2.32,-2.32 h 10.031 z"
   id="path2417" />
	
		<path
   style="display:inline;fill:#bcbec0;stroke:#000000;stroke-width:2;stroke-linecap:round;stroke-linejoin:round;stroke-miterlimit:10"
   d="M 45.259,56.134 H 55.29 c 1.281,0 2.32,-1.039 2.32,-2.32 v -2.749 c 0,-1.281 -1.039,-2.32 -2.32,-2.32 H 45.259 Z"
   id="path2419" />
	
		<path
   style="display:inline;fill:none;stroke:#000000;stroke-width:2;stroke-linecap:round;stroke-linejoin:round;stroke-miterlimit:10"
   d="M 26.116,16.673 H 37.885 V 7.717 c 0,-1.599 -1.296,-2.894 -2.894,-2.894 h -5.98 c -1.599,0 -2.894,1.296 -2.894,2.894 v 8.956 z"
   id="path2421" />
	
		<path
   style="display:inline;fill:#bcbec0;stroke:#000000;stroke-width:2;stroke-linecap:round;stroke-linejoin:round;stroke-miterlimit:10"
   d="m 15.561,59.178 h 32.877 c 2.544,0 4.606,-2.062 4.606,-4.606 V 30.197 C 53.044,18.575 43.622,9.153 32,9.153 v 0 c -11.622,0 -21.044,9.422 -21.044,21.044 v 24.375 c 0,2.544 2.062,4.606 4.605,4.606 z"
   id="path2423" />
	
		<path
   style="display:inline;fill:none;stroke:#000000;stroke-width:2;stroke-linecap:round;stroke-linejoin:round;stroke-miterlimit:10"
   d="m 14.956,30.197 c 0,-9.398 7.646,-17.044 17.044,-17.044 9.398,0 17.044,7.646 17.044,17.044"
   id="path2425" />
	
		<path
   style="display:inline;fill:#bcbec0;stroke:#000000;stroke-width:2;stroke-linecap:round;stroke-linejoin:round;stroke-miterlimit:10"
   d="m 21.043,52.439 h 21.914 c 1.87,0 3.386,-1.516 3.386,-3.386 v -10.35 c 0,-1.87 -1.516,-3.386 -3.386,-3.386 H 21.043 c -1.87,0 -3.386,1.516 -3.386,3.386 v 10.35 c 0,1.87 1.516,3.386 3.386,3.386 z"
   id="path2427" />
	
		<line
   style="display:inline;fill:none;stroke:#000000;stroke-width:2;stroke-linecap:round;stroke-linejoin:round;stroke-miterlimit:10"
   x1="22.657"
   y1="42.070999"
   x2="46.342999"
   y2="42.070999"
   id="line2429" />
	
		<line
   style="display:inline;fill:none;stroke:#000000;stroke-width:2;stroke-linecap:round;stroke-linejoin:round;stroke-miterlimit:10"
   x1="42.515999"
   y1="42.070999"
   x2="42.515999"
   y2="45.080002"
   id="line2431" />
	
		<path
   style="display:inline;fill:#bcbec0;stroke:#000000;stroke-width:2;stroke-linecap:round;stroke-linejoin:round;stroke-miterlimit:10"
   d="M 37.832,26.833 H 26.168 c -1.17,0 -2.118,-0.948 -2.118,-2.118 v -1.919 c 0,-1.17 0.948,-2.118 2.118,-2.118 h 11.664 c 1.17,0 2.118,0.948 2.118,2.118 v 1.919 c 0,1.17 -0.948,2.118 -2.118,2.118 z"
   id="path2433" />
</g><g
         id="flat"
         style="display:none">
	<path
   style="display:inline;fill:#00a9c5"
   d="m 9.223,13.578 c -0.999,-0.999 -0.999,-2.617 0,-3.616 l 2.206,-2.206 c 0.999,-0.999 2.617,-0.999 3.616,0 l 10.382,10.382 -5.822,5.822 z m 45.554,0 c 0.999,-0.999 0.999,-2.617 0,-3.616 L 52.57,7.755 c -0.999,-0.999 -2.617,-0.999 -3.616,0 l -10.382,10.382 5.822,5.822 z M 18.741,48.744 H 8.71 c -1.281,0 -2.32,1.039 -2.32,2.32 v 2.749 c 0,1.281 1.039,2.32 2.32,2.32 h 10.031 z m 26.518,7.39 H 55.29 c 1.281,0 2.32,-1.039 2.32,-2.32 v -2.749 c 0,-1.281 -1.039,-2.32 -2.32,-2.32 H 45.259 Z M 38.884,16.673 V 7.717 c 0,-2.147 -1.747,-3.895 -3.895,-3.895 H 29.01 c -2.147,0 -3.895,1.747 -3.895,3.895 v 8.957 c 0,0.552 0.448,1 1,1 h 11.769 c 0.553,-0.001 1,-0.448 1,-1.001 z M 27.116,7.717 c 0,-1.044 0.85,-1.895 1.895,-1.895 h 5.979 c 1.044,0 1.895,0.85 1.895,1.895 v 7.957 h -9.769 z"
   id="path2436" />
	<path
   style="display:inline;fill:#66d7de"
   d="m 15.561,59.178 h 32.877 c 2.544,0 4.606,-2.062 4.606,-4.606 V 30.197 C 53.044,18.575 43.622,9.153 32,9.153 v 0 c -11.622,0 -21.044,9.422 -21.044,21.044 v 24.375 c 0,2.544 2.062,4.606 4.605,4.606 z"
   id="path2438" />
	<path
   style="display:inline;fill:#00a9c5"
   d="m 49.044,31.197 c -0.552,0 -1,-0.448 -1,-1 0,-8.847 -7.197,-16.044 -16.044,-16.044 -8.847,0 -16.044,7.197 -16.044,16.044 0,0.552 -0.448,1 -1,1 -0.552,0 -1,-0.448 -1,-1 0,-9.949 8.094,-18.044 18.044,-18.044 9.95,0 18.044,8.095 18.044,18.044 0,0.552 -0.448,1 -1,1 z M 21.043,52.439 h 21.914 c 1.87,0 3.386,-1.516 3.386,-3.386 v -10.35 c 0,-1.87 -1.516,-3.386 -3.386,-3.386 H 21.043 c -1.87,0 -3.386,1.516 -3.386,3.386 v 10.35 c 0,1.87 1.516,3.386 3.386,3.386 z M 39.95,24.715 v -1.919 c 0,-1.17 -0.948,-2.118 -2.118,-2.118 H 26.168 c -1.17,0 -2.118,0.948 -2.118,2.118 v 1.919 c 0,1.17 0.948,2.118 2.118,2.118 h 11.664 c 1.17,0 2.118,-0.948 2.118,-2.118 z"
   id="path2440" />
	<path
   style="display:inline;fill:#008ca7"
   d="m 54.381,9.566 -3.883,3.882 c -0.195,0.195 -0.451,0.293 -0.707,0.293 -0.256,0 -0.512,-0.098 -0.707,-0.293 -0.391,-0.391 -0.391,-1.024 0,-1.414 l 3.883,-3.882 z m -36.696,5.237 -6.651,-6.651 -1.415,1.414 6.667,6.667 c 0.444,-0.499 0.91,-0.975 1.399,-1.43 z M 46.343,41.071 H 22.657 c -0.552,0 -1,0.448 -1,1 0,0.552 0.448,1 1,1 h 18.859 v 2.009 c 0,0.552 0.448,1 1,1 0.552,0 1,-0.448 1,-1 v -2.009 h 2.828 v -2 z"
   id="path2442" />
</g><g
         id="outlinestroke"
         style="display:none">
	<path
   style="display:inline;fill:none;stroke:#000000;stroke-width:2;stroke-linejoin:round;stroke-miterlimit:10"
   d="M 14.37,18.72 9.22,13.58 c -1,-1 -1,-2.62 0,-3.62 l 2.21,-2.2 c 1,-1 2.62,-1 3.62,0 l 5.07,5.07"
   id="path2445" />
	<path
   style="display:inline;fill:none;stroke:#000000;stroke-width:2;stroke-linejoin:round;stroke-miterlimit:10"
   d="m 43.88,12.83 5.07,-5.07 c 1,-1 2.62,-1 3.62,0 l 2.21,2.2 c 1,1 1,2.62 0,3.62 l -5.15,5.14"
   id="path2447" />
	
		<line
   style="display:inline;fill:none;stroke:#000000;stroke-width:2;stroke-linecap:round;stroke-linejoin:round;stroke-miterlimit:10"
   x1="49.791"
   y1="12.741"
   x2="53.16"
   y2="9.3719997"
   id="line2449" />
	
		<line
   style="display:inline;fill:none;stroke:#000000;stroke-width:2;stroke-linecap:round;stroke-linejoin:round;stroke-miterlimit:10"
   x1="16.950001"
   y1="15.48"
   x2="10.84"
   y2="9.3699999"
   id="line2451" />
	<path
   style="display:inline;fill:none;stroke:#000000;stroke-width:2;stroke-linejoin:round;stroke-miterlimit:10"
   d="M 10.96,48.74 H 8.71 c -1.28,0 -2.32,1.04 -2.32,2.32 v 2.75 c 0,1.29 1.04,2.32 2.32,2.32 h 2.53"
   id="path2453" />
	<path
   style="display:inline;fill:none;stroke:#000000;stroke-width:2;stroke-linejoin:round;stroke-miterlimit:10"
   d="m 53.04,48.74 h 2.25 c 1.28,0 2.32,1.04 2.32,2.32 v 2.75 c 0,1.29 -1.04,2.32 -2.32,2.32 h -2.53"
   id="path2455" />
	<path
   style="display:inline;fill:none;stroke:#000000;stroke-width:2;stroke-linejoin:round;stroke-miterlimit:10"
   d="M 26.12,9.98 V 7.72 c 0,-1.6 1.29,-2.9 2.89,-2.9 h 5.98 c 1.6,0 2.89,1.3 2.89,2.9 v 2.26"
   id="path2457" />
	
		<path
   style="display:inline;fill:none;stroke:#000000;stroke-width:2;stroke-linecap:round;stroke-linejoin:round;stroke-miterlimit:10"
   d="m 15.561,59.178 h 32.877 c 2.544,0 4.606,-2.062 4.606,-4.606 V 30.197 C 53.044,18.575 43.622,9.153 32,9.153 v 0 c -11.622,0 -21.044,9.422 -21.044,21.044 v 24.375 c 0,2.544 2.062,4.606 4.605,4.606 z"
   id="path2459" />
	
		<path
   style="display:inline;fill:none;stroke:#000000;stroke-width:2;stroke-linecap:round;stroke-linejoin:round;stroke-miterlimit:10"
   d="m 14.956,30.197 c 0,-9.398 7.646,-17.044 17.044,-17.044 9.398,0 17.044,7.646 17.044,17.044"
   id="path2461" />
	
		<path
   style="display:inline;fill:none;stroke:#000000;stroke-width:2;stroke-linecap:round;stroke-linejoin:round;stroke-miterlimit:10"
   d="m 21.043,52.439 h 21.914 c 1.87,0 3.386,-1.516 3.386,-3.386 v -10.35 c 0,-1.87 -1.516,-3.386 -3.386,-3.386 H 21.043 c -1.87,0 -3.386,1.516 -3.386,3.386 v 10.35 c 0,1.87 1.516,3.386 3.386,3.386 z"
   id="path2463" />
	
		<line
   style="display:inline;fill:none;stroke:#000000;stroke-width:2;stroke-linecap:round;stroke-linejoin:round;stroke-miterlimit:10"
   x1="22.657"
   y1="42.070999"
   x2="46.342999"
   y2="42.070999"
   id="line2465" />
	
		<line
   style="display:inline;fill:none;stroke:#000000;stroke-width:2;stroke-linecap:round;stroke-linejoin:round;stroke-miterlimit:10"
   x1="42.515999"
   y1="42.070999"
   x2="42.515999"
   y2="45.080002"
   id="line2467" />
	
		<path
   style="display:inline;fill:none;stroke:#000000;stroke-width:2;stroke-linecap:round;stroke-linejoin:round;stroke-miterlimit:10"
   d="M 37.832,26.833 H 26.168 c -1.17,0 -2.118,-0.948 -2.118,-2.118 v -1.919 c 0,-1.17 0.948,-2.118 2.118,-2.118 h 11.664 c 1.17,0 2.118,0.948 2.118,2.118 v 1.919 c 0,1.17 -0.948,2.118 -2.118,2.118 z"
   id="path2469" />
</g><g
         id="flat2"
         style="display:none">
	<path
   style="display:inline;fill:#00a9c5"
   d="m 9.223,13.578 c -0.999,-0.999 -0.999,-2.617 0,-3.616 l 2.206,-2.206 c 0.999,-0.999 2.617,-0.999 3.616,0 l 10.382,10.382 -5.822,5.822 z m 45.554,0 c 0.999,-0.999 0.999,-2.617 0,-3.616 L 52.57,7.755 c -0.999,-0.999 -2.617,-0.999 -3.616,0 l -10.382,10.382 5.822,5.822 z M 18.741,48.744 H 8.71 c -1.281,0 -2.32,1.039 -2.32,2.32 v 2.749 c 0,1.281 1.039,2.32 2.32,2.32 h 10.031 z m 26.518,7.39 H 55.29 c 1.281,0 2.32,-1.039 2.32,-2.32 v -2.749 c 0,-1.281 -1.039,-2.32 -2.32,-2.32 H 45.259 Z M 38.884,16.673 V 7.717 c 0,-2.147 -1.747,-3.895 -3.895,-3.895 H 29.01 c -2.147,0 -3.895,1.747 -3.895,3.895 v 8.957 c 0,0.552 0.448,1 1,1 h 11.769 c 0.553,-0.001 1,-0.448 1,-1.001 z M 27.116,7.717 c 0,-1.044 0.85,-1.895 1.895,-1.895 h 5.979 c 1.044,0 1.895,0.85 1.895,1.895 v 7.957 h -9.769 z"
   id="path2472" />
	<path
   style="display:inline;fill:#66d7de"
   d="m 15.561,59.178 h 32.877 c 2.544,0 4.606,-2.062 4.606,-4.606 V 30.197 C 53.044,18.575 43.622,9.153 32,9.153 v 0 c -11.622,0 -21.044,9.422 -21.044,21.044 v 24.375 c 0,2.544 2.062,4.606 4.605,4.606 z"
   id="path2474" />
	<path
   style="display:inline;fill:#00a9c5"
   d="m 17.657,49.053 v -10.35 c 0,-1.87 1.516,-3.386 3.386,-3.386 h 21.914 c 1.87,0 3.386,1.516 3.386,3.386 v 10.35 c 0,1.87 -1.516,3.386 -3.386,3.386 H 21.043 c -1.87,0 -3.386,-1.516 -3.386,-3.386 z M 39.95,24.715 v -1.919 c 0,-1.17 -0.948,-2.118 -2.118,-2.118 H 26.168 c -1.17,0 -2.118,0.948 -2.118,2.118 v 1.919 c 0,1.17 0.948,2.118 2.118,2.118 h 11.664 c 1.17,0 2.118,-0.948 2.118,-2.118 z"
   id="path2476" />
</g><g
         id="outline">
	<path
   d="M 55.29,47.74 H 54.044 V 30.197 c 0,-4.141 -1.15,-8.018 -3.144,-11.331 l 4.587,-4.578 C 56.875,12.9 56.875,10.642 55.486,9.252 L 53.278,7.053 c -1.388,-1.388 -3.646,-1.387 -5.034,0 l -4.501,4.501 C 42.235,10.601 40.605,9.826 38.881,9.258 V 7.72 c 0,-2.151 -1.745,-3.9 -3.89,-3.9 h -5.98 c -2.145,0 -3.89,1.75 -3.89,3.9 v 1.538 c -1.724,0.568 -3.354,1.343 -4.862,2.296 L 15.758,7.053 C 14.371,5.666 12.113,5.665 10.726,7.052 L 8.513,9.253 c -1.388,1.388 -1.388,3.646 0,5.035 l 4.586,4.577 c -1.994,3.314 -3.144,7.19 -3.144,11.331 V 47.74 H 8.71 c -1.831,0 -3.32,1.489 -3.32,3.32 v 2.75 c 0,1.831 1.489,3.32 3.32,3.32 h 1.87 c 0.932,1.807 2.813,3.048 4.982,3.048 h 32.877 c 2.169,0 4.05,-1.241 4.982,-3.048 h 1.87 c 1.831,0 3.32,-1.489 3.32,-3.32 V 51.06 C 58.61,49.229 57.121,47.74 55.29,47.74 Z M 8.71,55.13 c -0.728,0 -1.32,-0.592 -1.32,-1.32 v -2.75 c 0,-0.728 0.592,-1.32 1.32,-1.32 h 1.246 v 4.832 c 0,0.188 0.01,0.374 0.028,0.558 z M 49.657,8.467 c 0.608,-0.608 1.597,-0.607 2.207,10e-4 l 0.394,0.392 -3.174,3.173 c -0.391,0.39 -0.391,1.023 0,1.414 0.195,0.195 0.451,0.293 0.707,0.293 0.256,0 0.512,-0.098 0.707,-0.293 l 3.177,-3.177 0.398,0.396 c 0.608,0.608 0.608,1.598 0,2.205 l -4.305,4.297 c -1.237,-1.682 -2.706,-3.181 -4.36,-4.453 z M 27.12,7.72 c 0,-1.048 0.848,-1.9 1.89,-1.9 h 5.98 c 1.042,0 1.89,0.853 1.89,1.9 V 8.704 C 35.309,8.347 33.677,8.153 32,8.153 c -1.677,0 -3.309,0.195 -4.88,0.551 z m -12.777,0.747 4.249,4.249 c -0.562,0.432 -1.102,0.89 -1.619,1.373 l -5.23,-5.23 0.394,-0.392 c 0.608,-0.608 1.597,-0.609 2.206,0 z M 9.927,12.873 C 9.319,12.265 9.319,11.275 9.926,10.668 l 0.4,-0.398 5.247,5.247 c -0.473,0.529 -0.92,1.08 -1.341,1.652 z m 42.117,41.699 c 0,1.988 -1.617,3.606 -3.605,3.606 H 15.562 c -1.988,0 -3.605,-1.618 -3.605,-3.606 V 30.197 c 0,-11.052 8.992,-20.044 20.044,-20.044 11.052,0 20.044,8.992 20.044,20.044 V 54.572 Z M 56.61,53.81 c 0,0.728 -0.592,1.32 -1.32,1.32 h -1.274 c 0.018,-0.184 0.028,-0.37 0.028,-0.558 V 49.74 h 1.246 c 0.728,0 1.32,0.592 1.32,1.32 z M 50.044,30.197 c 0,0.552 -0.448,1 -1,1 -0.552,0 -1,-0.448 -1,-1 0,-8.847 -7.197,-16.044 -16.044,-16.044 -8.847,0 -16.044,7.197 -16.044,16.044 0,0.552 -0.448,1 -1,1 -0.552,0 -1,-0.448 -1,-1 0,-9.949 8.094,-18.044 18.044,-18.044 9.95,0 18.044,8.095 18.044,18.044 z m -7.087,4.12 H 21.043 c -2.418,0 -4.386,1.968 -4.386,4.386 v 10.35 c 0,2.418 1.968,4.386 4.386,4.386 h 21.914 c 2.418,0 4.386,-1.968 4.386,-4.386 v -10.35 c 0,-2.418 -1.968,-4.386 -4.386,-4.386 z m 0,17.122 H 21.043 c -1.316,0 -2.386,-1.07 -2.386,-2.386 v -10.35 c 0,-1.316 1.07,-2.386 2.386,-2.386 h 21.914 c 1.316,0 2.386,1.07 2.386,2.386 v 2.368 H 22.657 c -0.552,0 -1,0.448 -1,1 0,0.552 0.448,1 1,1 h 18.859 v 2.009 c 0,0.552 0.448,1 1,1 0.552,0 1,-0.448 1,-1 v -2.009 h 1.828 v 5.982 c -10e-4,1.316 -1.071,2.386 -2.387,2.386 z M 37.832,27.833 c 1.719,0 3.118,-1.399 3.118,-3.119 v -1.918 c 0,-1.72 -1.399,-3.119 -3.118,-3.119 H 26.168 c -1.719,0 -3.118,1.399 -3.118,3.119 v 1.918 c 0,1.72 1.399,3.119 3.118,3.119 z M 25.05,24.715 v -1.918 c 0,-0.617 0.501,-1.119 1.118,-1.119 h 11.664 c 0.617,0 1.118,0.502 1.118,1.119 v 1.918 c 0,0.617 -0.501,1.119 -1.118,1.119 H 26.168 C 25.551,25.833 25.05,25.332 25.05,24.715 Z"
   id="path2479" />
</g><g
         id="filled_outline"
         style="display:none">
	<path
   style="display:inline;fill:#00a9c5"
   d="m 9.223,13.578 c -0.999,-0.999 -0.999,-2.617 0,-3.616 l 2.206,-2.206 c 0.999,-0.999 2.617,-0.999 3.616,0 l 10.382,10.382 -5.822,5.822 z m 45.554,0 c 0.999,-0.999 0.999,-2.617 0,-3.616 L 52.57,7.755 c -0.999,-0.999 -2.617,-0.999 -3.616,0 l -10.382,10.382 5.822,5.822 z M 18.741,48.744 H 8.71 c -1.281,0 -2.32,1.039 -2.32,2.32 v 2.749 c 0,1.281 1.039,2.32 2.32,2.32 h 10.031 z m 26.518,7.39 H 55.29 c 1.281,0 2.32,-1.039 2.32,-2.32 v -2.749 c 0,-1.281 -1.039,-2.32 -2.32,-2.32 H 45.259 Z M 38.884,16.673 V 7.717 c 0,-2.147 -1.747,-3.895 -3.895,-3.895 H 29.01 c -2.147,0 -3.895,1.747 -3.895,3.895 v 8.957 c 0,0.552 0.448,1 1,1 h 11.769 c 0.553,-0.001 1,-0.448 1,-1.001 z M 27.116,7.717 c 0,-1.044 0.85,-1.895 1.895,-1.895 h 5.979 c 1.044,0 1.895,0.85 1.895,1.895 v 7.957 h -9.769 z"
   id="path2482" />
	<path
   style="display:inline;fill:#66d7de"
   d="m 15.561,59.178 h 32.877 c 2.544,0 4.606,-2.062 4.606,-4.606 V 30.197 C 53.044,18.575 43.622,9.153 32,9.153 v 0 c -11.622,0 -21.044,9.422 -21.044,21.044 v 24.375 c 0,2.544 2.062,4.606 4.605,4.606 z"
   id="path2484" />
	<path
   style="display:inline;fill:#00a9c5"
   d="m 17.657,49.053 v -10.35 c 0,-1.87 1.516,-3.386 3.386,-3.386 h 21.914 c 1.87,0 3.386,1.516 3.386,3.386 v 10.35 c 0,1.87 -1.516,3.386 -3.386,3.386 H 21.043 c -1.87,0 -3.386,-1.516 -3.386,-3.386 z M 39.95,24.715 v -1.919 c 0,-1.17 -0.948,-2.118 -2.118,-2.118 H 26.168 c -1.17,0 -2.118,0.948 -2.118,2.118 v 1.919 c 0,1.17 0.948,2.118 2.118,2.118 h 11.664 c 1.17,0 2.118,-0.948 2.118,-2.118 z"
   id="path2486" />
	<path
   style="display:inline"
   d="M 55.29,47.74 H 54.044 V 30.197 c 0,-4.141 -1.15,-8.018 -3.144,-11.331 l 4.587,-4.578 C 56.875,12.9 56.875,10.642 55.486,9.252 L 53.278,7.053 c -1.388,-1.388 -3.646,-1.387 -5.034,0 l -4.501,4.501 C 42.235,10.601 40.605,9.826 38.881,9.258 V 7.72 c 0,-2.151 -1.745,-3.9 -3.89,-3.9 h -5.98 c -2.145,0 -3.89,1.75 -3.89,3.9 v 1.538 c -1.724,0.568 -3.354,1.343 -4.862,2.296 L 15.758,7.053 C 14.371,5.666 12.113,5.665 10.726,7.052 L 8.513,9.253 c -1.388,1.388 -1.388,3.646 0,5.035 l 4.586,4.577 c -1.994,3.314 -3.144,7.19 -3.144,11.331 V 47.74 H 8.71 c -1.831,0 -3.32,1.489 -3.32,3.32 v 2.75 c 0,1.831 1.489,3.32 3.32,3.32 h 1.87 c 0.932,1.807 2.813,3.048 4.982,3.048 h 32.877 c 2.169,0 4.05,-1.241 4.982,-3.048 h 1.87 c 1.831,0 3.32,-1.489 3.32,-3.32 V 51.06 C 58.61,49.229 57.121,47.74 55.29,47.74 Z M 8.71,55.13 c -0.728,0 -1.32,-0.592 -1.32,-1.32 v -2.75 c 0,-0.728 0.592,-1.32 1.32,-1.32 h 1.246 v 4.832 c 0,0.188 0.01,0.374 0.028,0.558 z M 49.657,8.467 c 0.608,-0.608 1.597,-0.607 2.207,10e-4 l 0.394,0.392 -3.174,3.173 c -0.391,0.39 -0.391,1.023 0,1.414 0.195,0.195 0.451,0.293 0.707,0.293 0.256,0 0.512,-0.098 0.707,-0.293 l 3.177,-3.177 0.398,0.396 c 0.608,0.608 0.608,1.598 0,2.205 l -4.305,4.297 c -1.237,-1.682 -2.706,-3.181 -4.36,-4.453 z M 27.12,7.72 c 0,-1.048 0.848,-1.9 1.89,-1.9 h 5.98 c 1.042,0 1.89,0.853 1.89,1.9 V 8.704 C 35.309,8.347 33.677,8.153 32,8.153 c -1.677,0 -3.309,0.195 -4.88,0.551 z m -12.777,0.747 4.249,4.249 c -0.562,0.432 -1.102,0.89 -1.619,1.373 l -5.23,-5.23 0.394,-0.392 c 0.608,-0.608 1.597,-0.609 2.206,0 z M 9.927,12.873 C 9.319,12.265 9.319,11.275 9.926,10.668 l 0.4,-0.398 5.247,5.247 c -0.473,0.529 -0.92,1.08 -1.341,1.652 z m 42.117,41.699 c 0,1.988 -1.617,3.606 -3.605,3.606 H 15.562 c -1.988,0 -3.605,-1.618 -3.605,-3.606 V 30.197 c 0,-11.052 8.992,-20.044 20.044,-20.044 11.052,0 20.044,8.992 20.044,20.044 V 54.572 Z M 56.61,53.81 c 0,0.728 -0.592,1.32 -1.32,1.32 h -1.274 c 0.018,-0.184 0.028,-0.37 0.028,-0.558 V 49.74 h 1.246 c 0.728,0 1.32,0.592 1.32,1.32 z M 50.044,30.197 c 0,0.552 -0.448,1 -1,1 -0.552,0 -1,-0.448 -1,-1 0,-8.847 -7.197,-16.044 -16.044,-16.044 -8.847,0 -16.044,7.197 -16.044,16.044 0,0.552 -0.448,1 -1,1 -0.552,0 -1,-0.448 -1,-1 0,-9.949 8.094,-18.044 18.044,-18.044 9.95,0 18.044,8.095 18.044,18.044 z m -7.087,4.12 H 21.043 c -2.418,0 -4.386,1.968 -4.386,4.386 v 10.35 c 0,2.418 1.968,4.386 4.386,4.386 h 21.914 c 2.418,0 4.386,-1.968 4.386,-4.386 v -10.35 c 0,-2.418 -1.968,-4.386 -4.386,-4.386 z m 0,17.122 H 21.043 c -1.316,0 -2.386,-1.07 -2.386,-2.386 v -10.35 c 0,-1.316 1.07,-2.386 2.386,-2.386 h 21.914 c 1.316,0 2.386,1.07 2.386,2.386 v 2.368 H 22.657 c -0.552,0 -1,0.448 -1,1 0,0.552 0.448,1 1,1 h 18.859 v 2.009 c 0,0.552 0.448,1 1,1 0.552,0 1,-0.448 1,-1 v -2.009 h 1.828 v 5.982 c -10e-4,1.316 -1.071,2.386 -2.387,2.386 z M 37.832,27.833 c 1.719,0 3.118,-1.399 3.118,-3.119 v -1.918 c 0,-1.72 -1.399,-3.119 -3.118,-3.119 H 26.168 c -1.719,0 -3.118,1.399 -3.118,3.119 v 1.918 c 0,1.72 1.399,3.119 3.118,3.119 z M 25.05,24.715 v -1.918 c 0,-0.617 0.501,-1.119 1.118,-1.119 h 11.664 c 0.617,0 1.118,0.502 1.118,1.119 v 1.918 c 0,0.617 -0.501,1.119 -1.118,1.119 H 26.168 C 25.551,25.833 25.05,25.332 25.05,24.715 Z"
   id="path2488" />
</g></g></g></svg>
