<?xml version="1.0" encoding="UTF-8"?><svg width="512" height="512" version="1.1" viewBox="0 0 512 512" xmlns="http://www.w3.org/2000/svg" xmlns:xlink="http://www.w3.org/1999/xlink"><!--Generated by IJSVG (https://github.com/iconjar/IJSVG)--><g transform="scale(5.12)"><path fill="#000" d="M85.625,82.749h-71.25c-1.036,0 -1.875,0.84 -1.875,1.875v5.156h75v-5.156c0,-1.035 -0.84,-1.875 -1.875,-1.875Z"></path><path fill="#000" d="M21.875,40.562v35.156h-5.156c-1.036,0 -1.875,0.84 -1.875,1.875v2.812h70.312v-2.812c0,-1.035 -0.84,-1.875 -1.875,-1.875h-5.156v-35.156h-9.375v35.156h-14.062v-35.156h-9.375v35.156h-14.063v-35.156h-9.375Z"></path><path fill="#000" d="M14.844,36.343c0,1.035 0.839,1.875 1.875,1.875h66.562c1.035,0 1.875,-0.84 1.875,-1.875v-2.812h2.344l-37.5,-23.312l-37.5,23.312h2.344v2.812Z"></path></g></svg>