<svg xmlns="http://www.w3.org/2000/svg" viewBox="0 0 64 64"><g id="Layer_19" data-name="Layer 19"><path d="M61,37a1,1,0,0,0,1-1V32a1,1,0,0,0-1-1H56.24A27.99,27.99,0,0,0,39,17.9V14a1,1,0,0,0-1-1H33V9.2a4.154,4.154,0,0,1,.88.58,4.6,4.6,0,0,0,6.24,0A2.6,2.6,0,0,1,42,9a1,1,0,0,0,1-1V3a1,1,0,0,0-1-1,4.51,4.51,0,0,0-3.12,1.22,2.656,2.656,0,0,1-3.76,0A4.51,4.51,0,0,0,32,2a1,1,0,0,0-1,1V13H26a1,1,0,0,0-1,1v3.9A27.99,27.99,0,0,0,7.76,31H3a1,1,0,0,0-1,1v4a1,1,0,0,0,1,1H4V56H3a1,1,0,0,0-1,1v4a1,1,0,0,0,1,1H61a1,1,0,0,0,1-1V57a1,1,0,0,0-1-1H60V37ZM33,4.19a4.367,4.367,0,0,1,.88.59,4.6,4.6,0,0,0,6.24,0A4.367,4.367,0,0,1,41,4.19V7.1a4.816,4.816,0,0,0-2.12,1.12,2.656,2.656,0,0,1-3.76,0A4.816,4.816,0,0,0,33,7.1ZM27,15H37v2.46a27.4,27.4,0,0,0-10,0Zm5,4A26,26,0,0,1,53.91,31H10.09A26,26,0,0,1,32,19ZM60,60H4V58H60ZM6,56V37h4V56Zm6,0V37h4V56Zm6,0V37h4V56Zm6,0V37h4V56Zm6,0V37h4V56Zm6,0V37h4V56Zm6,0V37h4V56Zm6,0V37h4V56Zm6,0V37h4V56ZM4,35V33H60v2Z"/></g></svg>